<svg width="180" height="38" viewBox="0 0 180 38" fill="none" xmlns="http://www.w3.org/2000/svg">
<g clip-path="url(#clip0_817_10926)">
<path fill-rule="evenodd" clip-rule="evenodd" d="M15.168 11.4213H11.8964V18.4567H15.168C15.6353 18.4697 16.1006 18.3885 16.5372 18.2176C16.9738 18.0468 17.3731 17.7896 17.7125 17.4609C18.0518 17.1322 18.3244 16.7384 18.5148 16.302C18.7052 15.8655 18.8095 15.395 18.8219 14.9173C18.7859 13.9602 18.382 13.0563 17.6979 12.4017C17.0138 11.7472 16.1047 11.3949 15.168 11.4213Z" fill="white"/>
<path fill-rule="evenodd" clip-rule="evenodd" d="M22.8907 19.3038H19.6191V26.3827H22.8907C23.3682 26.4209 23.8484 26.3578 24.3009 26.1973C24.7534 26.0368 25.1686 25.7823 25.5203 25.4499C25.872 25.1175 26.1526 24.7144 26.3445 24.2658C26.5365 23.8172 26.6355 23.3329 26.6355 22.8433C26.6355 22.3536 26.5365 21.8693 26.3445 21.4207C26.1526 20.9721 25.872 20.569 25.5203 20.2366C25.1686 19.9042 24.7534 19.6497 24.3009 19.4892C23.8484 19.3287 23.3682 19.2656 22.8907 19.3038Z" fill="white"/>
<path fill-rule="evenodd" clip-rule="evenodd" d="M22.8899 11.4216H19.6289V18.457H22.9005C23.8372 18.4834 24.7463 18.1312 25.4304 17.4766C26.1145 16.8221 26.5184 15.9181 26.5544 14.961C26.5421 14.4824 26.4374 14.011 26.2463 13.5738C26.0553 13.1366 25.7817 12.7423 25.4412 12.4135C25.1008 12.0846 24.7001 11.8277 24.2623 11.6575C23.8245 11.4873 23.3581 11.4071 22.8899 11.4216Z" fill="white"/>
<path fill-rule="evenodd" clip-rule="evenodd" d="M15.168 19.3038H11.8964V26.3827H15.168C15.6455 26.4209 16.1256 26.3578 16.5782 26.1973C17.0307 26.0368 17.4458 25.7823 17.7975 25.4499C18.1492 25.1175 18.4299 24.7144 18.6218 24.2658C18.8137 23.8172 18.9128 23.3329 18.9128 22.8433C18.9128 22.3536 18.8137 21.8693 18.6218 21.4207C18.4299 20.9721 18.1492 20.569 17.7975 20.2366C17.4458 19.9042 17.0307 19.6497 16.5782 19.4892C16.1256 19.3287 15.6455 19.2656 15.168 19.3038Z" fill="white"/>
<path d="M18.5885 5.64571C16.0049 5.64786 13.4799 6.4329 11.3328 7.90159C9.18567 9.37029 7.51275 11.4567 6.52552 13.8971C5.53829 16.3374 5.28107 19.0222 5.78639 21.6119C6.2917 24.2017 7.53686 26.5802 9.36446 28.4467C11.1921 30.3133 13.52 31.5841 16.0541 32.0985C18.5882 32.6129 21.2146 32.3478 23.6013 31.3367C25.988 30.3256 28.0278 28.614 29.463 26.4181C30.8981 24.2222 31.6641 21.6408 31.6641 19C31.6613 15.4572 30.2824 12.0605 27.8306 9.55643C25.3787 7.05233 22.0545 5.64571 18.5885 5.64571ZM18.5885 0C22.2649 0 25.8588 1.11433 28.9156 3.20208C31.9725 5.28982 34.355 8.25722 35.7619 11.729C37.1689 15.2008 37.537 19.0211 36.8197 22.7067C36.1025 26.3924 34.3321 29.7778 31.7325 32.435C29.1328 35.0922 25.8207 36.9018 22.2149 37.6349C18.6091 38.368 14.8716 37.9918 11.475 36.5537C8.07836 35.1156 5.17524 32.6804 3.13272 29.5558C1.09019 26.4313 0 22.7578 0 19C0 13.9609 1.95842 9.12816 5.44443 5.56497C8.93044 2.00178 13.6585 0 18.5885 0Z" fill="white"/>
<path d="M147.645 9.59725H149.77L160.817 25.6115V9.59725H162.941V29.4767H160.817L149.844 13.191V29.4767H147.72L147.645 9.59725ZM130.247 29.4767L137.618 9.54297H139.148L146.583 29.4767H144.225L142.334 24.135H134.517L132.594 29.4767H130.247ZM135.165 22.2784H141.538L138.351 12.9847L135.165 22.2784ZM120.751 18.3807H122.875C123.94 18.4497 124.992 18.1218 125.839 17.4578C126.191 17.1363 126.469 16.7386 126.653 16.2935C126.837 15.8485 126.921 15.3673 126.901 14.8847C126.925 14.4341 126.857 13.9833 126.701 13.5609C126.546 13.1385 126.306 12.7537 125.998 12.431C125.158 11.7362 124.091 11.3945 123.013 11.4755H120.804L120.751 18.3807ZM120.751 27.6093H123.64C124.765 27.6852 125.884 27.3841 126.826 26.7515C127.237 26.4076 127.559 25.9672 127.766 25.468C127.973 24.9688 128.059 24.4257 128.016 23.8853C128.032 23.3845 127.939 22.8863 127.744 22.4264C127.55 21.9665 127.258 21.5564 126.89 21.2253C126.044 20.5392 124.984 20.1883 123.905 20.2373H120.719L120.751 27.6093ZM118.573 29.4767V9.59725H123.087C124.731 9.48948 126.352 10.0252 127.623 11.0955C128.092 11.5491 128.463 12.0989 128.71 12.7088C128.957 13.3187 129.075 13.9751 129.057 14.635C129.072 15.5699 128.833 16.4908 128.367 17.295C127.926 18.037 127.269 18.6183 126.486 18.9561C127.537 19.2126 128.484 19.797 129.195 20.6281C129.901 21.5252 130.277 22.6471 130.257 23.7984C130.287 24.5728 130.147 25.3442 129.847 26.0561C129.548 26.7681 129.096 27.4026 128.526 27.9133C127.126 29.0254 125.378 29.5808 123.608 29.4767H118.573ZM165.724 29.4767V9.60811H167.902V18.7173L176.559 9.60811H179.511L170.153 19.4338L180.043 29.4767H176.983L167.944 20.4001V29.4767H165.724Z" fill="white"/>
<path d="M64.0187 21.128H68.0551L66.0475 15.4171L64.0187 21.128ZM69.3297 24.8846H62.6697L61.0339 29.488H56.424L64.0612 9.53257H67.7789L75.841 29.4989H71.008L69.3297 24.8846ZM109.768 29.4663V9.59771H114.282V29.4663H109.768ZM47.5759 17.5234H48.9355C49.5792 17.5565 50.2107 17.3349 50.6988 16.9046C50.89 16.7188 51.0416 16.4947 51.1439 16.2462C51.2463 15.9977 51.2973 15.7302 51.2936 15.4606C51.3017 15.1781 51.2521 14.897 51.1478 14.6353C51.0436 14.3735 50.887 14.1369 50.6881 13.9406C50.1825 13.4924 49.53 13.2558 48.8612 13.2783H47.629L47.5759 17.5234ZM47.5759 25.6663H49.4347C50.2604 25.7325 51.0855 25.5312 51.7928 25.0909C52.0497 24.8812 52.2519 24.61 52.3816 24.3013C52.5113 23.9926 52.5645 23.6559 52.5364 23.3211C52.5487 23.026 52.4903 22.7323 52.3663 22.4655C52.2423 22.1987 52.0563 21.9669 51.8247 21.7903C51.2395 21.3988 50.5473 21.2086 49.849 21.2474H47.629L47.5759 25.6663ZM43.0616 29.4011V9.52171H49.5834C50.8007 9.4792 52.0101 9.73612 53.1099 10.2709C53.9403 10.684 54.637 11.3322 55.1175 12.1383C55.5249 12.8423 55.7478 13.6419 55.7645 14.4598C55.7813 15.2776 55.5913 16.086 55.2131 16.8069C54.8334 17.5351 54.2586 18.1376 53.5561 18.544C54.6175 18.8644 55.5515 19.5224 56.2222 20.4223C56.8204 21.2765 57.1367 22.3033 57.125 23.3537C57.1024 24.3639 56.8164 25.3496 56.2965 26.2091C55.7414 27.1644 54.9405 27.9455 53.9809 28.4674C52.7847 29.1023 51.4515 29.4197 50.1039 29.3903L43.0616 29.4011ZM97.3292 21.1497H101.366L99.358 15.4389L97.3292 21.1497ZM102.64 24.9063H95.9484L94.3126 29.5097H89.7876H88.0456C87.4225 27.8284 86.5521 26.2541 85.4645 24.8411C84.2924 23.2511 82.667 22.0715 80.8121 21.4646V29.5097H76.3083V9.5H80.8227V17.0023C82.0654 16.644 85.4539 15.1674 87.8332 9.5H92.2732C91.9013 10.6666 91.4433 11.8026 90.9029 12.8983C89.7013 15.4617 87.8396 17.6423 85.5176 19.2063C86.8224 20.1199 87.9952 21.2163 89.0016 22.4634C89.8482 23.5582 90.5616 24.754 91.126 26.0246L97.4248 9.53257H101.143L109.194 29.4989H104.361L102.64 24.9063Z" fill="white"/>
</g>
<defs>
<clipPath id="clip0_817_10926">
<rect width="180" height="38" fill="white"/>
</clipPath>
</defs>
</svg>
