<svg width="17" height="14" viewBox="0 0 17 14" fill="none" xmlns="http://www.w3.org/2000/svg">
<path d="M8.57724 0.505119L6.80402 4.81919C6.71327 5.03999 6.55926 5.24053 6.3544 5.40467C6.14954 5.56881 5.89955 5.69196 5.62456 5.7642L0.251691 7.17572L5.62015 8.60396C5.8949 8.67705 6.14451 8.80098 6.34886 8.96575C6.55321 9.13053 6.70659 9.33155 6.79666 9.55262L8.55645 13.8722L10.3297 9.55812C10.4204 9.33732 10.5744 9.13678 10.7793 8.97264C10.9842 8.8085 11.2341 8.68535 11.5091 8.61311L16.882 7.20159L11.5135 5.77335C11.2388 5.70026 10.9892 5.57633 10.7848 5.41156C10.5805 5.24678 10.4271 5.04576 10.337 4.82469L8.57724 0.505119Z" fill="white"/>
</svg>
