<svg width="27" height="23" viewBox="0 0 27 23" fill="none" xmlns="http://www.w3.org/2000/svg">
<path d="M14.0021 1.28699C13.8333 0.872552 13.2468 0.871639 13.0766 1.28555L10.438 7.70507C10.2792 8.09146 10.0097 8.44241 9.65117 8.72966C9.29266 9.0169 8.85518 9.23241 8.37396 9.35883L0.800604 11.3485C0.304131 11.4789 0.303035 12.1833 0.7991 12.3152L8.36623 14.3284C8.84706 14.4563 9.28387 14.6732 9.64148 14.9615C9.99909 15.2499 10.2675 15.6017 10.4251 15.9886L13.0438 22.4163C13.2126 22.8307 13.7991 22.8316 13.9693 22.4177L16.6079 15.9982C16.7667 15.6118 17.0362 15.2609 17.3947 14.9736C17.7532 14.6864 18.1907 14.4709 18.6719 14.3444L26.2453 12.3548C26.7418 12.2244 26.7429 11.52 26.2468 11.388L18.6797 9.37485C18.1988 9.24694 17.762 9.03007 17.4044 8.74171C17.0468 8.45336 16.7784 8.10157 16.6208 7.71469L14.0021 1.28699Z" fill="white"/>
</svg>
