<svg width="64" height="64" viewBox="0 0 64 64" fill="none" xmlns="http://www.w3.org/2000/svg">
<rect x="12" y="12" width="40" height="40" rx="20" fill="#A1D7FF"/>
<path d="M6 17H34V19H6V17ZM6 22H12.4615V24H6V22Z" fill="#1E1E1E"/>
<path d="M62.1756 10.0386L40.36 4.98206V4.27947C40.3575 3.43325 40.6121 2.1504 39.424 0.959498C38.2358 -0.231405 36.9559 0.0238464 36.1116 0.0213191H11.6832C11.4016 0.0234208 11.1316 0.133952 10.9291 0.330035L0.30801 10.9754C0.112375 11.1784 0.0020969 11.449 0 11.7312V52.1836C0.00252153 53.0298 0.339031 53.8407 0.936036 54.439C1.53304 55.0374 2.34203 55.3747 3.18631 55.3772H12.6284L49.7596 63.968C49.8393 63.9891 49.9214 63.9998 50.0039 64C50.2028 64.0013 50.3981 63.9459 50.5668 63.8403C50.8037 63.6862 50.9713 63.4456 51.0341 63.1696L62.9722 11.3054C63.004 11.1698 63.0086 11.0291 62.9856 10.8917C62.9627 10.7542 62.9127 10.6227 62.8386 10.5048C62.7644 10.3869 62.6676 10.285 62.5538 10.205C62.44 10.1249 62.3114 10.0684 62.1756 10.0386ZM10.621 3.65139V9.60215C10.621 9.88448 10.5091 10.1553 10.31 10.3549C10.1108 10.5545 9.84063 10.6667 9.55894 10.6667H3.62178L10.621 3.65139ZM3.18631 53.2482C2.90463 53.2482 2.63448 53.136 2.43529 52.9364C2.23611 52.7367 2.12421 52.466 2.12421 52.1836V12.7958H9.55894C10.4032 12.7932 11.2122 12.456 11.8092 11.8576C12.4062 11.2592 12.7427 10.4484 12.7453 9.60215V2.15039H36.1116C36.3933 2.15039 37.7255 2.26255 37.9247 2.46219C38.1239 2.66183 38.2358 3.99713 38.2358 4.27947V52.1836C38.2358 52.466 38.1239 52.7367 37.9247 52.9364C37.7255 53.136 37.4554 53.2482 37.1737 53.2482H3.18631ZM49.2073 61.658L22.0705 55.3772H37.1737C38.018 55.3747 38.8269 55.0374 39.424 54.439C40.021 53.8407 40.3575 53.0298 40.36 52.1836V50.8742L46.9769 52.3965L47.4548 50.3313L40.36 48.6813V44.3167L48.4107 46.169L48.8781 44.1038L40.36 42.1237V37.7698L49.8446 39.9521L50.3119 37.8869L40.36 35.5768V31.2016L51.2678 33.7246L51.7564 31.6593L40.36 29.0087V24.6547L52.7123 27.497L53.1796 25.4318L40.36 22.4618V18.0972L54.1461 21.2801L54.6241 19.2149L40.36 15.9149V7.17501L60.6674 11.8696L49.2073 61.658Z" fill="#1E1E1E"/>
<path d="M31.8 10H34V12H31.8V10ZM27.4 10H29.6V12H27.4V10ZM23 10H25.2V12H23V10Z" fill="#1E1E1E"/>
<path d="M20 47.8334C25.9831 47.8334 30.8333 42.9831 30.8333 37C30.8333 31.0169 25.9831 26.1667 20 26.1667C14.0169 26.1667 9.16666 31.0169 9.16666 37C9.16666 42.9831 14.0169 47.8334 20 47.8334Z" stroke="#1E1E1E" stroke-width="2" stroke-linecap="round" stroke-linejoin="round"/>
<path d="M23.25 33.75L16.75 40.25" stroke="#1E1E1E" stroke-width="2" stroke-linecap="round" stroke-linejoin="round"/>
<path d="M16.75 33.75L23.25 40.25" stroke="#1E1E1E" stroke-width="2" stroke-linecap="round" stroke-linejoin="round"/>
</svg>
