<svg width="64" height="64" viewBox="0 0 64 64" fill="none" xmlns="http://www.w3.org/2000/svg">
<rect x="10" y="10" width="44" height="44" rx="22" fill="#FFD188"/>
<path d="M55.7935 11.9166H43.5873L30.1947 4.37491C26.843 2.47633 22.9517 1.68351 19.1002 2.11448L5.60072 3.57282L0.427536 2.5624L0 4.60407L5.3442 5.64574C5.45293 5.66998 5.56544 5.67352 5.67554 5.65616L19.3353 4.17699C22.7359 3.80121 26.17 4.50638 29.1259 6.18741L39.312 11.9166H25.4491L22.5525 10.2916L21.4837 12.0937L30.7399 17.302C31.2299 17.5786 31.5873 18.0335 31.7336 18.5666C31.8798 19.0998 31.8031 19.6677 31.5201 20.1458C31.3836 20.3846 31.1984 20.5937 30.9761 20.7603C30.7537 20.9268 30.4987 21.0474 30.2268 21.1145C29.9555 21.1875 29.6719 21.2066 29.3928 21.1708C29.1138 21.135 28.8449 21.045 28.6022 20.9062L22.125 17.2604C21.9844 17.1837 21.828 17.1383 21.6672 17.1275C21.5065 17.1167 21.3452 17.1407 21.1951 17.1979L17.7641 18.5416C16.624 18.9806 15.4094 19.2067 14.1835 19.2083H12.794C11.051 19.209 9.34045 18.7481 7.84529 17.8749L5.03424 16.2291C4.86926 16.1337 4.68097 16.0833 4.48913 16.0833H0.213768V18.1666H4.18986L6.74438 19.6562C8.57099 20.7269 10.6625 21.2923 12.794 21.2916H14.1835C15.6196 21.2903 17.0433 21.0326 18.3841 20.5312V35.875C18.3866 36.703 18.7252 37.4965 19.326 38.082C19.9268 38.6675 20.7409 38.9975 21.5906 39H55.7935C56.6431 38.9975 57.4572 38.6675 58.058 38.082C58.6588 37.4965 58.9975 36.703 59 35.875V15.0416C58.9975 14.2136 58.6588 13.4201 58.058 12.8346C57.4572 12.2491 56.6431 11.9191 55.7935 11.9166ZM56.8623 35.875C56.8623 36.1513 56.7497 36.4162 56.5493 36.6116C56.3488 36.8069 56.077 36.9167 55.7935 36.9167H21.5906C21.3071 36.9167 21.0352 36.8069 20.8348 36.6116C20.6343 36.4162 20.5217 36.1513 20.5217 35.875V19.7083L21.5051 19.3229L27.5333 22.7187C28.1847 23.0803 28.9214 23.2705 29.671 23.2708C30.0459 23.2713 30.4194 23.2259 30.7826 23.1354C31.3616 22.9785 31.9004 22.7053 32.3645 22.3333H34.4167C35.2663 22.3308 36.0804 22.0008 36.6812 21.4153C37.282 20.8297 37.6207 20.0363 37.6232 19.2083C37.6232 18.3795 37.2854 17.5846 36.684 16.9986C36.0827 16.4125 35.2671 16.0833 34.4167 16.0833H32.5996C32.3615 15.858 32.0959 15.662 31.8087 15.4999L29.1473 13.9999H55.7935C56.077 13.9999 56.3488 14.1097 56.5493 14.305C56.7497 14.5004 56.8623 14.7653 56.8623 15.0416V35.875ZM33.8288 18.1666H34.4167C34.5593 18.1654 34.7007 18.1935 34.8315 18.2492C34.9622 18.3048 35.0795 18.3867 35.1755 18.4895C35.2756 18.5818 35.3548 18.6933 35.4082 18.8171C35.4615 18.9408 35.4879 19.0741 35.4855 19.2083C35.4855 19.4845 35.3729 19.7495 35.1725 19.9449C34.972 20.1402 34.7001 20.2499 34.4167 20.2499H33.7754C33.9694 19.5705 33.9878 18.8547 33.8288 18.1666Z" fill="#1E1E1E"/>
<path d="M43.7102 36.0751H52.1997C52.7625 36.0751 53.3024 35.8518 53.7004 35.4544C54.0984 35.0569 54.322 34.5178 54.322 33.9557V27.5973C54.322 27.0352 54.0984 26.4961 53.7004 26.0986C53.3024 25.7011 52.7625 25.4778 52.1997 25.4778H43.7102C43.1473 25.4778 42.6075 25.7011 42.2095 26.0986C41.8115 26.4961 41.5878 27.0352 41.5878 27.5973V33.9557C41.5878 34.5178 41.8115 35.0569 42.2095 35.4544C42.6075 35.8518 43.1473 36.0751 43.7102 36.0751ZM43.7102 31.8362H47.9549V33.9557H43.7102V31.8362ZM52.1997 33.9557H50.0773V27.5973H52.1997V33.9557ZM47.9549 27.5973V29.7168H43.7102V27.5973H47.9549ZM22.4866 26.5376H37.3431V28.657H22.4866V26.5376ZM52.1997 21.2389H54.322V23.3584H52.1997V21.2389ZM47.9549 21.2389H50.0773V23.3584H47.9549V21.2389ZM43.7102 21.2389H45.8326V23.3584H43.7102V21.2389ZM43.7102 17H54.322V19.1195H43.7102V17ZM22.4866 30.7765H24.6089V35.0154H22.4866V30.7765ZM26.7313 30.7765H28.8537V35.0154H26.7313V30.7765ZM30.976 30.7765H33.0984V35.0154H30.976V30.7765ZM35.2208 30.7765H37.3431V35.0154H35.2208V30.7765ZM64 58.3401L63.7453 60.4383L55.0436 59.3998L41.5985 60.8834C40.929 60.9592 40.2559 60.9981 39.5822 61C36.4222 60.9976 33.3185 60.1643 30.5834 58.5838L16.1195 50.2437C15.1449 49.6797 14.4343 48.7524 14.1438 47.6655C13.8533 46.5786 14.0067 45.4211 14.5702 44.447C15.1338 43.4753 16.0604 42.7666 17.1467 42.4766C18.233 42.1865 19.3902 42.3387 20.3642 42.8998L29.6283 48.2408C29.6002 48.0725 29.5824 47.9027 29.5753 47.7322C29.5767 46.6084 30.0243 45.531 30.8201 44.7364C31.6158 43.9417 32.6947 43.4947 33.82 43.4933H41.0466L44.262 42.211C45.6409 41.6539 47.1149 41.3696 48.6023 41.3738H49.9818C52.0983 41.3717 54.1751 41.947 55.9881 43.0376L58.5243 44.553H63.8727V46.6724H58.2272C58.0367 46.6724 57.8498 46.6211 57.686 46.5241L54.8951 44.8497C53.4113 43.9598 51.7126 43.4909 49.9818 43.4933H48.6023C47.3885 43.4938 46.1859 43.724 45.0579 44.1715L41.6409 45.5385C41.5167 45.5906 41.3829 45.6159 41.2483 45.6127H33.82C33.2571 45.6127 32.7173 45.836 32.3193 46.2335C31.9212 46.631 31.6976 47.1701 31.6976 47.7322C31.6976 48.2943 31.9212 48.8334 32.3193 49.2309C32.7173 49.6283 33.2571 49.8516 33.82 49.8516H44.4318V51.9711H33.2788C32.3475 51.9706 31.4326 51.7258 30.6258 51.2611L19.303 44.7331C19.062 44.5919 18.7951 44.5004 18.518 44.464C18.241 44.4276 17.9594 44.447 17.69 44.5212C17.2859 44.6307 16.9232 44.8572 16.6477 45.1722C16.3721 45.4871 16.1961 45.8764 16.1416 46.2911C16.0871 46.7057 16.1567 47.1272 16.3416 47.5024C16.5265 47.8777 16.8185 48.1899 17.1807 48.3998L31.6446 56.7505C34.5833 58.4497 37.9903 59.1629 41.365 58.7852L54.9269 57.2803C55.0079 57.2697 55.09 57.2697 55.171 57.2803L64 58.3401Z" fill="#1E1E1E"/>
</svg>
