<svg width="64" height="64" viewBox="0 0 64 64" fill="none" xmlns="http://www.w3.org/2000/svg">
<rect x="3" y="55" width="40" height="42" transform="rotate(-90 3 55)" fill="#A0D8A7"/>
<path d="M49.8913 1H21.2826C21.0117 1.00204 20.752 1.10933 20.5572 1.29967L8.2963 13.6997C8.1081 13.8967 8.00202 14.1594 8 14.4333V57.8333C8 59.2036 8.53824 60.5178 9.4963 61.4867C10.4544 62.4557 11.7538 63 13.1087 63H49.8913C51.2462 63 52.5456 62.4557 53.5037 61.4867C54.4618 60.5178 55 59.2036 55 57.8333V6.16667C55 4.79638 54.4618 3.48222 53.5037 2.51328C52.5456 1.54434 51.2462 1 49.8913 1ZM20.2609 4.52367V12.3667C20.2609 12.6407 20.1532 12.9036 19.9616 13.0973C19.77 13.2911 19.5101 13.4 19.2391 13.4H11.4841L20.2609 4.52367ZM52.9565 57.8333C52.9541 58.6547 52.6304 59.4418 52.0561 60.0227C51.4817 60.6035 50.7035 60.9309 49.8913 60.9333H13.1087C12.2965 60.9309 11.5183 60.6035 10.9439 60.0227C10.3696 59.4418 10.0459 58.6547 10.0435 57.8333V15.4667H19.2391C20.0513 15.4642 20.8296 15.1368 21.4039 14.556C21.9782 13.9752 22.3019 13.1881 22.3043 12.3667V3.06667H49.8913C50.7035 3.06912 51.4817 3.39651 52.0561 3.97735C52.6304 4.55818 52.9541 5.34525 52.9565 6.16667V57.8333Z" fill="#1E1E1E"/>
<path d="M42.45 25.5053L32.45 20.1212C32.3115 20.0416 32.157 20 32 20C31.843 20 31.6885 20.0416 31.55 20.1212L21.55 25.5053C21.3842 25.5936 21.2448 25.7302 21.1475 25.8997C21.0503 26.0691 20.9992 26.2645 21 26.4637V33.1508C21.0061 35.5656 21.5899 37.938 22.6951 40.0391C23.8004 42.1403 25.3898 43.8993 27.31 45.1466L31.49 47.8494C31.6444 47.948 31.8205 48 32 48C32.1795 48 32.3556 47.948 32.51 47.8494L36.69 45.1466C38.6102 43.8993 40.1996 42.1403 41.3049 40.0391C42.4101 37.938 42.9939 35.5656 43 33.1508V26.4637C43.0008 26.2645 42.9497 26.0691 42.8525 25.8997C42.7552 25.7302 42.6158 25.5936 42.45 25.5053ZM41 33.1508C40.9931 35.1944 40.4984 37.2017 39.5632 38.98C38.6281 40.7583 37.2839 42.2477 35.66 43.3052L32 45.6635L28.34 43.3052C26.7161 42.2477 25.3719 40.7583 24.4368 38.98C23.5016 37.2017 23.0069 35.1944 23 33.1508V27.1313L32 22.2856L41 27.1313V33.1508Z" fill="#1E1E1E"/>
<path d="M38.8531 28.58L32.4781 25.58C32.3294 25.5109 32.1658 25.475 32 25.475C31.8342 25.475 31.6706 25.5109 31.5219 25.58L25.1469 28.58C24.9707 28.662 24.8226 28.7889 24.7192 28.9462C24.6159 29.1036 24.5616 29.285 24.5625 29.47V33.21C24.5658 34.7626 24.9949 36.2881 25.8083 37.6388C26.6218 38.9896 27.792 40.1198 29.2056 40.92L31.4581 42.19C31.6221 42.2815 31.8093 42.3298 32 42.3298C32.1907 42.3298 32.3779 42.2815 32.5419 42.19L34.7944 40.92C36.208 40.1198 37.3782 38.9896 38.1917 37.6388C39.0051 36.2881 39.4342 34.7626 39.4375 33.21V29.47C39.4384 29.285 39.3841 29.1036 39.2808 28.9462C39.1774 28.7889 39.0293 28.662 38.8531 28.58ZM37.3125 33.21C37.3085 34.4179 36.974 35.6044 36.3413 36.6553C35.7085 37.7062 34.7989 38.586 33.7 39.21L32 40.17L30.3 39.21C29.1984 38.5855 28.2871 37.7037 27.6544 36.65C27.0196 35.602 26.6864 34.4163 26.6875 33.21V30.09L32 27.59L37.3125 30.09V33.21ZM27.75 14H49V16H27.75V14ZM27.75 10H32V12H27.75V10ZM34.125 10H49V12H34.125V10ZM15 20H25.625V22H15V20ZM38.375 20H49V22H38.375V20ZM15 24H19.25V26H15V24ZM44.75 24H49V26H44.75V24ZM45.8125 28H49V30H45.8125V28ZM15 28H18.1875V30H15V28ZM45.8125 32H49V34H45.8125V32ZM15 32H18.1875V34H15V32ZM15 44H22.4375V46H15V44ZM41.5625 44H49V46H41.5625V44ZM15 48H23.5V50H15V48ZM40.5 48H49V50H40.5V48ZM25.625 48H29.875V50H25.625V48ZM34.125 48H38.375V50H34.125V48ZM44.75 36H49V38H44.75V36ZM15 36H19.25V38H15V36ZM44.75 40H49V42H44.75V40ZM15 40H19.25V42H15V40Z" fill="#1E1E1E"/>
</svg>
