<svg width="26" height="26" viewBox="0 0 26 26" fill="none" xmlns="http://www.w3.org/2000/svg">
<path d="M13.475 0.44403C13.3242 -0.0143363 12.6758 -0.0143374 12.525 0.444029L10.0258 8.04244C9.87356 8.50524 9.61479 8.92581 9.2703 9.2703C8.92581 9.61479 8.50524 9.87356 8.04244 10.0258L0.44403 12.525C-0.0143363 12.6758 -0.0143374 13.3242 0.444029 13.475L8.04244 15.9742C8.50524 16.1264 8.92581 16.3852 9.2703 16.7297C9.61479 17.0742 9.87356 17.4948 10.0258 17.9576L12.525 25.556C12.6758 26.0143 13.3242 26.0143 13.475 25.556L15.9742 17.9576C16.1264 17.4948 16.3852 17.0742 16.7297 16.7297C17.0742 16.3852 17.4948 16.1264 17.9576 15.9742L25.556 13.475C26.0143 13.3242 26.0143 12.6758 25.556 12.525L17.9576 10.0258C17.4948 9.87356 17.0742 9.61479 16.7297 9.2703C16.3852 8.92581 16.1264 8.50524 15.9742 8.04244L13.475 0.44403Z" fill="url(#paint0_linear_817_1838)"/>
<defs>
<linearGradient id="paint0_linear_817_1838" x1="-1" y1="-1" x2="27" y2="27" gradientUnits="userSpaceOnUse">
<stop stop-color="#646464"/>
<stop offset="1" stop-color="#1E1E1E"/>
</linearGradient>
</defs>
</svg>
