<svg width="16" height="16" viewBox="0 0 16 16" fill="none" xmlns="http://www.w3.org/2000/svg">
<path d="M8 0L6.30044 5.16711C6.21347 5.43156 6.06559 5.67189 5.86874 5.86874C5.67189 6.06559 5.43156 6.21347 5.16711 6.30044L0 8L5.16711 9.69956C5.43156 9.78653 5.67189 9.93441 5.86874 10.1313C6.06559 10.3281 6.21347 10.5684 6.30044 10.8329L8 16L9.69956 10.8329C9.78653 10.5684 9.93441 10.3281 10.1313 10.1313C10.3281 9.93441 10.5684 9.78653 10.8329 9.69956L16 8L10.8329 6.30044C10.5684 6.21347 10.3281 6.06559 10.1313 5.86874C9.93441 5.67189 9.78653 5.43156 9.69956 5.16711L8 0Z" fill="#1E1E1E"/>
</svg>
