<svg width="180" height="53" viewBox="0 0 180 53" fill="none" xmlns="http://www.w3.org/2000/svg">
<g clip-path="url(#clip0_817_9388)">
<path d="M0.5 12.6758V0.5H46.3397V12.6758C46.3397 28.4673 40.5412 38.2887 34.773 44.1633C31.8843 47.1053 28.9962 49.0641 26.8333 50.2862C25.752 50.8971 24.8528 51.3234 24.2266 51.5961C23.9135 51.7324 23.6688 51.8303 23.5038 51.8936C23.4679 51.9073 23.4357 51.9195 23.4075 51.93C23.3801 51.9212 23.3491 51.9111 23.3145 51.8996C23.1501 51.845 22.906 51.7597 22.5936 51.6391C21.9687 51.3979 21.0711 51.0152 19.9914 50.4531C17.8318 49.3285 14.9475 47.4874 12.062 44.6255C6.3021 38.9124 0.5 29.095 0.5 12.6758Z" stroke="white"/>
<path fill-rule="evenodd" clip-rule="evenodd" d="M23.3772 52.4445C23.4054 52.453 23.4199 52.4571 23.4199 52.4571C23.4199 52.4571 23.4199 52.4571 23.4201 52.4571C23.4188 52.4567 23.4043 52.4526 23.3772 52.4445ZM18.8333 50.3932C12.015 46.5402 0 36.3868 0 12.6758V0H46.8397V3.22708C46.8053 8.49251 44.3917 12.6765 36.9698 12.7889H18.1055V23.3142H36.9698V26.4832C36.9698 31.8025 35.393 36.1032 27.0997 36.1032H18.1055V49.9673C18.354 50.1172 18.5968 50.259 18.8333 50.3932Z" fill="white"/>
<path d="M59.8632 31.1797H64.7107C67.3388 31.1797 69.2078 32.3114 69.2078 34.5183C69.2078 35.5936 68.6821 36.6687 67.6893 37.2346V37.2912C69.2077 37.7439 69.7334 39.0454 69.7334 40.1772C69.7334 42.95 67.3388 43.9685 64.7107 43.9685H59.8632V31.1797ZM64.7691 36.1028C65.5867 36.1028 65.9372 35.537 65.9372 34.9145C65.9372 34.3485 65.5867 33.8393 64.7107 33.8393H63.1338V36.1028H64.7691ZM65.0027 41.2524C65.9372 41.2524 66.4044 40.6299 66.4044 39.8943C66.4044 39.1585 65.9372 38.5927 65.0027 38.5927H63.0754V41.2524H65.0027Z" fill="white"/>
<path d="M74.6973 31.1797H78.0847L82.5818 43.9119H79.2528L78.4351 41.2524H74.3468L73.5293 43.9119H70.2002L74.6973 31.1797ZM77.6759 38.7624L76.9166 36.2726C76.683 35.4804 76.391 34.0656 76.391 34.0656H76.3326C76.3326 34.0656 76.0406 35.4804 75.807 36.2726L75.0478 38.7624H77.6759Z" fill="white"/>
<path d="M83.8669 31.1797H87.1376L90.7586 37.1214C91.2842 37.9702 91.8683 39.2717 91.8683 39.2717H91.9266C91.9266 39.2717 91.7515 37.9136 91.7515 37.1214V31.1797H94.9636V43.9119H91.7515L88.0721 37.9702C87.5464 37.1214 86.9624 35.8199 86.9624 35.8199H86.9039C86.9039 35.8199 87.0792 37.178 87.0792 37.9702V43.9119H83.8669V31.1797Z" fill="white"/>
<path d="M100.979 31.1797V36.1028H102.323L105.067 31.1797H108.513L104.951 37.2912V37.3478L108.689 43.9685H105.067L102.264 38.819H100.921V43.9685H97.7087V31.1797H100.979Z" fill="white"/>
<path d="M59.8632 25.4092V7.52734H71.1935V8.82887C71.1935 10.187 70.0838 11.2621 68.6821 11.2621H64.3603V14.997H69.967V16.2419C69.967 17.6001 68.7989 18.7318 67.3973 18.7318H64.3603V25.3526H59.8632V25.4092Z" fill="white"/>
<path d="M78.2596 15.6194H80.2453C81.0046 15.6194 81.5886 15.4497 81.9975 15.0536C82.4062 14.6575 82.6399 14.1482 82.6399 13.4125C82.6399 12.4505 82.2894 11.7714 81.5302 11.4885C81.1214 11.3187 80.5374 11.2621 79.8365 11.2621H78.318V15.6194H78.2596ZM73.7041 7.52734H80.1285C81.7638 7.52734 82.9318 7.69712 83.6911 7.98005C84.7424 8.37617 85.6185 8.99863 86.2025 9.90404C86.7865 10.8095 87.0786 11.8846 87.0786 13.1862C87.0786 14.2048 86.8449 15.1667 86.3777 16.0721C85.9104 16.9775 85.2096 17.6567 84.3335 18.1094V18.1659C84.5087 18.3923 84.7424 18.7318 85.0343 19.2411L88.5971 25.5223H83.6327L80.3621 19.4674H78.2596V25.5223H73.7041V7.52734Z" fill="white"/>
<path d="M90.7002 25.4092V7.52734H102.323V11.2621H95.2556V14.5443H100.862V18.2791H95.2556V21.6743H102.673V25.4092H90.7002Z" fill="white"/>
<path d="M105.535 25.4092V7.52734H117.099V11.2621H110.091V14.5443H115.697V18.2791H110.091V21.6743H117.508V25.4092H105.535Z" fill="white"/>
<path d="M124.867 21.6743H126.735C128.312 21.6743 129.538 21.2216 130.414 20.3162C131.291 19.4109 131.758 18.1094 131.758 16.4116C131.758 14.7706 131.291 13.4691 130.414 12.5636C129.538 11.6582 128.312 11.2621 126.735 11.2621H124.867V21.6743ZM120.369 25.4092V7.52734H126.91C129.83 7.52734 132.166 8.31958 133.861 9.90404C135.554 11.4885 136.43 13.6389 136.43 16.4682C136.43 19.2977 135.554 21.448 133.861 23.0325C132.166 24.6169 129.83 25.4092 126.91 25.4092H120.369Z" fill="white"/>
<path d="M143.088 16.3548C143.088 17.8828 143.555 19.1842 144.49 20.2028C145.423 21.2214 146.651 21.7306 148.053 21.7306C149.512 21.7306 150.681 21.2214 151.614 20.2028C152.549 19.1842 153.016 17.8828 153.016 16.3548C153.016 14.8835 152.549 13.6386 151.614 12.6765C150.681 11.7146 149.512 11.2053 148.053 11.2053C146.592 11.2053 145.423 11.7146 144.49 12.6765C143.555 13.6386 143.088 14.8835 143.088 16.3548ZM138.415 16.3548C138.415 13.7518 139.292 11.6014 141.102 9.8472C142.913 8.09296 145.249 7.24414 148.053 7.24414C150.856 7.24414 153.191 8.09296 155.002 9.8472C156.812 11.6014 157.689 13.7518 157.689 16.3548C157.689 19.0145 156.812 21.278 155.002 23.0323C153.191 24.843 150.856 25.6918 148.053 25.6918C145.249 25.6918 142.913 24.7864 141.102 23.0323C139.292 21.2214 138.415 19.0145 138.415 16.3548Z" fill="white"/>
<path d="M159.85 25.4092L161.369 7.52734H166.275L168.961 15.1101L169.896 18.0528H169.954C170.305 16.8643 170.596 15.8458 170.889 15.1101L173.575 7.52734H178.481L179.999 25.4092H175.503L174.919 17.3736C174.859 16.9775 174.859 16.5248 174.859 16.0155C174.859 15.5063 174.859 15.1101 174.859 14.8272V14.3745H174.801C174.392 15.6194 174.042 16.638 173.75 17.3736L171.823 22.5798H167.968L166.04 17.3736L164.989 14.3745H164.931C164.989 15.4497 164.989 16.4682 164.931 17.3736L164.347 25.4092H159.85Z" fill="white"/>
</g>
<defs>
<clipPath id="clip0_817_9388">
<rect width="180" height="52.4571" fill="white"/>
</clipPath>
</defs>
</svg>
