<svg width="64" height="64" viewBox="0 0 64 64" fill="none" xmlns="http://www.w3.org/2000/svg">
<g clip-path="url(#clip0_817_2125)">
<circle cx="32" cy="32" r="25" fill="#A1D7FF"/>
<path d="M57.0563 20.8579L56 21.738C56.3133 22.1105 56.4844 22.5769 56.4844 23.0582C56.4844 23.5395 56.3133 24.0059 56 24.3784L57.0563 25.2585C57.5786 24.6378 57.864 23.8604 57.864 23.0582C57.864 22.256 57.5786 21.4786 57.0563 20.8579Z" fill="black"/>
<path d="M59.0045 27.1947C60.0758 26.07 60.671 24.593 60.671 23.0595C60.671 21.526 60.0758 20.0491 59.0045 18.9243L57.9816 19.8424C58.8149 20.717 59.2779 21.8656 59.2779 23.0582C59.2779 24.2508 58.8149 25.3994 57.9816 26.274L59.0045 27.1947Z" fill="black"/>
<path d="M62.066 23.0593C62.0707 24.9677 61.317 26.804 59.9626 28.1843L60.9694 29.1186C62.5668 27.4841 63.4576 25.3148 63.4576 23.0593C63.4576 20.8038 62.5668 18.6345 60.9694 17L59.9626 17.9343C61.317 19.3146 62.0707 21.1509 62.066 23.0593Z" fill="black"/>
<path d="M22.4865 6.0542H24.6487V7.78393H22.4865V6.0542ZM26.8108 6.0542H35.4595V7.78393H26.8108V6.0542Z" fill="#1E1E1E"/>
<path d="M57 46C56.0586 45.9962 55.1469 46.3297 54.43 46.94C54.0735 46.3489 53.5705 45.8597 52.9696 45.5199C52.3687 45.18 51.6903 45.001 51 45C50.0586 44.9962 49.1469 45.3297 48.43 45.94C48.0797 45.3597 47.5876 44.878 47 44.54V34H50C50.7949 33.9976 51.5566 33.6808 52.1187 33.1187C52.6808 32.5566 52.9976 31.7949 53 31V15C52.9976 14.2051 52.6808 13.4434 52.1187 12.8813C51.5566 12.3192 50.7949 12.0024 50 12H47V9C46.9979 7.14413 46.2597 5.36489 44.9474 4.05259C43.6351 2.7403 41.8559 2.00212 40 2H18C16.1441 2.00212 14.3649 2.7403 13.0526 4.05259C11.7403 5.36489 11.0021 7.14413 11 9V27.26C10.3485 27.4716 9.74764 27.8152 9.23491 28.2695C8.72217 28.7237 8.3086 29.2788 8.02001 29.9L4.01001 38.59C3.33896 40.0339 2.99413 41.6078 3.00001 43.2V62H5.00001V43.2C4.99632 41.8976 5.27971 40.6104 5.83001 39.43L9.84001 30.74C10.0868 30.2074 10.4919 29.7639 11 29.47V47C11.0014 47.3316 11.0281 47.6625 11.08 47.99L10.44 49.1L12.17 50.1L18.17 39.71C18.295 39.471 18.4671 39.2597 18.6759 39.089C18.8847 38.9182 19.1259 38.7914 19.3849 38.7162C19.644 38.6411 19.9156 38.6191 20.1833 38.6516C20.4511 38.6842 20.7095 38.7705 20.9431 38.9055C21.1766 39.0405 21.3804 39.2213 21.5422 39.4371C21.7041 39.6529 21.8206 39.8992 21.8848 40.1612C21.9489 40.4232 21.9594 40.6955 21.9157 40.9616C21.8719 41.2278 21.7747 41.4824 21.63 41.71L17.13 49.5C17.0431 49.6563 16.9983 49.8325 17 50.0113C17.0018 50.1902 17.05 50.3655 17.14 50.52L19.28 54.08C19.7491 54.8553 19.998 55.7438 20 56.65V61.99H22V56.65C21.9952 55.7408 21.8152 54.8411 21.47 54H27.54C27.6242 54.3636 27.7588 54.7137 27.94 55.04L32.25 62.5L33.98 61.5L29.67 54.04C29.5373 53.8127 29.4513 53.5611 29.4169 53.3001C29.3826 53.0392 29.4006 52.7739 29.47 52.52C29.6063 52.0063 29.9408 51.5676 30.4 51.3C30.8623 51.0409 31.4065 50.9692 31.92 51.1C32.1749 51.1664 32.4136 51.284 32.6216 51.4456C32.8297 51.6072 33.0026 51.8094 33.13 52.04L35.13 55.5C35.2424 55.6898 35.4132 55.8381 35.6169 55.9228C35.8206 56.0076 36.0462 56.0241 36.26 55.97C36.4731 55.9126 36.6612 55.7864 36.7951 55.6109C36.9289 55.4355 37.001 55.2207 37 55V38C37 37.4696 37.2107 36.9609 37.5858 36.5858C37.9609 36.2107 38.4696 36 39 36C39.5304 36 40.0392 36.2107 40.4142 36.5858C40.7893 36.9609 41 37.4696 41 38V52C41 52.2652 41.1054 52.5196 41.2929 52.7071C41.4804 52.8946 41.7348 53 42 53C42.2652 53 42.5196 52.8946 42.7071 52.7071C42.8947 52.5196 43 52.2652 43 52V48C43 47.4696 43.2107 46.9609 43.5858 46.5858C43.9609 46.2107 44.4696 46 45 46C45.5304 46 46.0392 46.2107 46.4142 46.5858C46.7893 46.9609 47 47.4696 47 48V52C47 52.2652 47.1054 52.5196 47.2929 52.7071C47.4804 52.8946 47.7348 53 48 53C48.2652 53 48.5196 52.8946 48.7071 52.7071C48.8947 52.5196 49 52.2652 49 52V49C49 48.4696 49.2107 47.9609 49.5858 47.5858C49.9609 47.2107 50.4696 47 51 47C51.5304 47 52.0392 47.2107 52.4142 47.5858C52.7893 47.9609 53 48.4696 53 49V52C53 52.2652 53.1054 52.5196 53.2929 52.7071C53.4804 52.8946 53.7348 53 54 53C54.2652 53 54.5196 52.8946 54.7071 52.7071C54.8947 52.5196 55 52.2652 55 52V50C55 49.4696 55.2107 48.9609 55.5858 48.5858C55.9609 48.2107 56.4696 48 57 48C57.5305 48 58.0392 48.2107 58.4142 48.5858C58.7893 48.9609 59 49.4696 59 50V62H61V50C61 48.9391 60.5786 47.9217 59.8284 47.1716C59.0783 46.4214 58.0609 46 57 46ZM31 48H27C26.7348 48 26.4804 47.8946 26.2929 47.7071C26.1054 47.5196 26 47.2652 26 47C26 46.7348 26.1054 46.4804 26.2929 46.2929C26.4804 46.1054 26.7348 46 27 46H31C31.2652 46 31.5196 46.1054 31.7071 46.2929C31.8947 46.4804 32 46.7348 32 47C32 47.2652 31.8947 47.5196 31.7071 47.7071C31.5196 47.8946 31.2652 48 31 48ZM45 44C44.2974 44.0007 43.6075 44.187 43 44.54V38C43 36.9391 42.5786 35.9217 41.8284 35.1716C41.0783 34.4214 40.0609 34 39 34C37.9391 34 36.9217 34.4214 36.1716 35.1716C35.4214 35.9217 35 36.9391 35 38V51.27L34.87 51.04C34.4156 50.2567 33.706 49.6531 32.86 49.33C33.214 49.0533 33.5006 48.6997 33.698 48.2961C33.8955 47.8925 33.9988 47.4493 34 47C33.9976 46.2051 33.6808 45.4434 33.1187 44.8813C32.5566 44.3192 31.7949 44.0024 31 44H27C26.2044 44 25.4413 44.3161 24.8787 44.8787C24.3161 45.4413 24 46.2043 24 47C24 47.7957 24.3161 48.5587 24.8787 49.1213C25.4413 49.6839 26.2044 50 27 50H28.8C28.1858 50.5225 27.7461 51.2204 27.54 52H20.37L19.16 49.99L23.37 42.71C23.9004 41.791 24.0441 40.699 23.7694 39.6741C23.4946 38.6492 22.824 37.7754 21.905 37.245C20.986 36.7146 19.894 36.5709 18.8691 36.8457C17.8442 37.1204 16.9704 37.791 16.44 38.71L13 44.66V9C13 7.67392 13.5268 6.40215 14.4645 5.46447C15.4022 4.52678 16.6739 4 18 4H40C41.3261 4 42.5979 4.52678 43.5355 5.46447C44.4732 6.40215 45 7.67392 45 9V12H24C23.2051 12.0024 22.4434 12.3192 21.8813 12.8813C21.3192 13.4434 21.0024 14.2051 21 15V31C21.0024 31.7949 21.3192 32.5566 21.8813 33.1187C22.4434 33.6808 23.2051 33.9976 24 34H45V44ZM24 32C23.7348 32 23.4804 31.8946 23.2929 31.7071C23.1054 31.5196 23 31.2652 23 31V15C23 14.7348 23.1054 14.4804 23.2929 14.2929C23.4804 14.1054 23.7348 14 24 14H50C50.2652 14 50.5196 14.1054 50.7071 14.2929C50.8947 14.4804 51 14.7348 51 15V31C51 31.2652 50.8947 31.5196 50.7071 31.7071C50.5196 31.8946 50.2652 32 50 32H24Z" fill="black"/>
<path d="M46 24H43C42.2044 24 41.4413 24.3161 40.8787 24.8787C40.3161 25.4413 40 26.2044 40 27C40 27.7956 40.3161 28.5587 40.8787 29.1213C41.4413 29.6839 42.2044 30 43 30H46C46.7956 30 47.5587 29.6839 48.1213 29.1213C48.6839 28.5587 49 27.7956 49 27C49 26.2044 48.6839 25.4413 48.1213 24.8787C47.5587 24.3161 46.7956 24 46 24ZM46 28H43C42.7348 28 42.4804 27.8946 42.2929 27.7071C42.1054 27.5196 42 27.2652 42 27C42 26.7348 42.1054 26.4804 42.2929 26.2929C42.4804 26.1054 42.7348 26 43 26H46C46.2652 26 46.5196 26.1054 46.7071 26.2929C46.8946 26.4804 47 26.7348 47 27C47 27.2652 46.8946 27.5196 46.7071 27.7071C46.5196 27.8946 46.2652 28 46 28ZM26 24H34C34.2652 24 34.5196 23.8946 34.7071 23.7071C34.8946 23.5196 35 23.2652 35 23V17C35 16.7348 34.8946 16.4804 34.7071 16.2929C34.5196 16.1054 34.2652 16 34 16H26C25.7348 16 25.4804 16.1054 25.2929 16.2929C25.1054 16.4804 25 16.7348 25 17V23C25 23.2652 25.1054 23.5196 25.2929 23.7071C25.4804 23.8946 25.7348 24 26 24ZM33 22H31V18H33V22ZM27 18H29V22H27V18ZM47 16H49V18H47V16ZM43 16H45V18H43V16ZM39 16H41V18H39V16ZM25 26H27V28H25V26ZM29 26H31V28H29V26ZM33 26H35V28H33V26ZM39 20H49V22H39V20Z" fill="black"/>
</g>
<defs>
<clipPath id="clip0_817_2125">
<rect width="64" height="64" fill="white"/>
</clipPath>
</defs>
</svg>
