<svg width="64" height="64" viewBox="0 0 64 64" fill="none" xmlns="http://www.w3.org/2000/svg">
<rect x="12" y="44" width="27" height="52" transform="rotate(-90 12 44)" fill="#A1D7FF"/>
<path fill-rule="evenodd" clip-rule="evenodd" d="M19.9826 6.0011C19.1415 6.0011 18.4606 6.677 18.4606 7.51205V12.7905H45.5394V7.51205C45.5394 6.67707 44.8585 6.0011 44.0173 6.0011H19.9826ZM47.5551 7.76732V7.51205C47.5551 5.57176 45.9716 4 44.0173 4H19.9826C18.0282 4 16.4449 5.57183 16.4449 7.51205V7.76732H3.53789C1.58384 7.76732 0 9.33977 0 11.2794V53.9764C0 55.916 1.58384 57.4885 3.53789 57.4885H16.5904C17.0242 58.941 18.3784 60 19.9826 60H44.0174C45.6216 60 46.9758 58.941 47.4096 57.4885H60.4621C62.4162 57.4885 64 55.916 64 53.9764V11.2794C64 9.33977 62.4162 7.76732 60.4621 7.76732H47.5551ZM47.5551 9.76842V16.5579H61.9843V11.2794C61.9843 10.4449 61.3029 9.76842 60.4621 9.76842H47.5551ZM61.9843 18.559H47.5551V55.4874H60.4621C61.3029 55.4874 61.9843 54.8109 61.9843 53.9764V18.559ZM45.5394 14.7915H18.4606V56.4879C18.4606 57.323 19.1415 57.9989 19.9826 57.9989H44.0174C44.8585 57.9989 45.5394 57.323 45.5394 56.4879V14.7915ZM16.4449 16.5579V9.76842H3.53789C2.69711 9.76842 2.01575 10.4449 2.01575 11.2794V16.5579H16.4449ZM2.01575 18.559H16.4449V55.4874H3.53789C2.69711 55.4874 2.01575 54.8109 2.01575 53.9764V18.559Z" fill="#1E1E1E"/>
<path fill-rule="evenodd" clip-rule="evenodd" d="M38.2844 19.1775C38.7414 19.4884 38.8526 20.1006 38.5327 20.5448C37.9692 21.3272 36.9302 22.1413 35.6794 22.3576C35.0357 22.469 34.3348 22.4203 33.6441 22.1195V28.607C33.6441 30.7034 31.5507 32.053 29.4644 32.053C27.378 32.053 25.2848 30.7034 25.2848 28.607C25.2848 26.5106 27.3779 25.1609 29.4644 25.1609C30.216 25.1609 30.9686 25.3361 31.6239 25.6583V19.9818C31.6239 19.5512 31.9125 19.1709 32.3358 19.0438C32.7591 18.9167 33.2182 19.0726 33.4681 19.4281C33.8286 19.9411 34.1773 20.1993 34.466 20.3259C34.7509 20.4509 35.037 20.4744 35.3254 20.4245C35.9446 20.3174 36.5537 19.8686 36.8776 19.4189C37.1975 18.9747 37.8273 18.8666 38.2844 19.1775ZM31.6239 28.607C31.6239 27.9812 30.8791 27.1244 29.4644 27.1244C28.0497 27.1244 27.305 27.9812 27.305 28.607C27.305 29.2327 28.0497 30.0896 29.4644 30.0896C30.8791 30.0896 31.6239 29.2327 31.6239 28.607ZM5 23.6783C5 23.1361 5.45224 22.6965 6.01012 22.6965H17.4204C17.9782 22.6965 18.4305 23.1361 18.4305 23.6783C18.4305 24.2205 17.9782 24.66 17.4204 24.66H6.01012C5.45224 24.66 5 24.2205 5 23.6783ZM45.5695 23.6783C45.5695 23.1361 46.0218 22.6965 46.5796 22.6965H57.9899C58.5478 22.6965 59 23.1361 59 23.6783C59 24.2205 58.5478 24.66 57.9899 24.66H46.5796C46.0218 24.66 45.5695 24.2205 45.5695 23.6783ZM5 28.607C5 28.0648 5.45224 27.6253 6.01012 27.6253H17.4204C17.9782 27.6253 18.4305 28.0648 18.4305 28.607C18.4305 29.1492 17.9782 29.5887 17.4204 29.5887H6.01012C5.45224 29.5887 5 29.1492 5 28.607ZM45.5695 28.607C45.5695 28.0648 46.0218 27.6253 46.5796 27.6253H57.9899C58.5478 27.6253 59 28.0648 59 28.607C59 29.1492 58.5478 29.5887 57.9899 29.5887H46.5796C46.0218 29.5887 45.5695 29.1492 45.5695 28.607ZM5 33.5357C5 32.9935 5.45224 32.5539 6.01012 32.5539H17.4204C17.9782 32.5539 18.4305 32.9935 18.4305 33.5357C18.4305 34.0779 17.9782 34.5174 17.4204 34.5174H6.01012C5.45224 34.5174 5 34.0779 5 33.5357ZM45.5695 33.5357C45.5695 32.9935 46.0218 32.5539 46.5796 32.5539H57.9899C58.5478 32.5539 59 32.9935 59 33.5357C59 34.0779 58.5478 34.5174 57.9899 34.5174H46.5796C46.0218 34.5174 45.5695 34.0779 45.5695 33.5357ZM21.4813 36C21.4813 35.4578 21.9335 35.0183 22.4914 35.0183H41.5086C42.0665 35.0183 42.5187 35.4578 42.5187 36C42.5187 36.5422 42.0665 36.9818 41.5086 36.9818H22.4914C21.9335 36.9818 21.4813 36.5422 21.4813 36ZM5 38.4644C5 37.9222 5.45224 37.4827 6.01012 37.4827H17.4204C17.9782 37.4827 18.4305 37.9222 18.4305 38.4644C18.4305 39.0066 17.9782 39.4461 17.4204 39.4461H6.01012C5.45224 39.4461 5 39.0066 5 38.4644ZM45.5695 38.4644C45.5695 37.9222 46.0218 37.4827 46.5796 37.4827H57.9899C58.5478 37.4827 59 37.9222 59 38.4644C59 39.0066 58.5478 39.4461 57.9899 39.4461H46.5796C46.0218 39.4461 45.5695 39.0066 45.5695 38.4644ZM21.4813 40.9288C21.4813 40.3866 21.9335 39.9471 22.4914 39.9471H41.5086C42.0665 39.9471 42.5187 40.3866 42.5187 40.9288C42.5187 41.471 42.0665 41.9105 41.5086 41.9105H22.4914C21.9335 41.9105 21.4813 41.471 21.4813 40.9288ZM7.51435 46.0565C7.19788 46.3504 7.02023 46.7214 7.02023 47.0895C7.02023 47.9089 7.70269 48.5722 8.54576 48.5722H17.4204C17.9782 48.5722 18.4305 49.0117 18.4305 49.5539C18.4305 50.0961 17.9782 50.5356 17.4204 50.5356H8.54576C6.58702 50.5356 5 48.9934 5 47.0895C5 46.0959 5.47495 45.2348 6.11868 44.637C6.75602 44.0451 7.631 43.6435 8.54576 43.6435H17.4203C17.4203 43.6435 17.4204 43.6435 17.4204 44.6252C17.4204 45.607 17.4203 45.607 17.4203 45.607H8.54576C8.23006 45.607 7.83722 45.7567 7.51435 46.0565ZM18.4305 44.6252C18.4305 45.1674 17.9782 45.607 17.4203 45.607L17.4204 44.6252L17.4203 43.6435C17.9782 43.6435 18.4305 44.0831 18.4305 44.6252ZM45.5695 44.6252C45.5695 44.0831 46.0218 43.6435 46.5796 43.6435H55.4542C57.4126 43.6435 58.9994 45.1853 59 47.0884C59.0005 47.5414 58.9089 47.9901 58.7305 48.4086C58.5523 48.8264 58.291 49.206 57.9617 49.5256C57.6327 49.8461 57.2418 50.1003 56.8115 50.2737C56.3809 50.4471 55.9192 50.5361 55.4531 50.5356H46.5796C46.0218 50.5356 45.5695 50.0961 45.5695 49.5539C45.5695 49.0117 46.0218 48.5722 46.5796 48.5722H55.4554C55.6553 48.5724 55.8533 48.5342 56.038 48.4598C56.2227 48.3854 56.3905 48.2763 56.5316 48.1387L56.5337 48.1366C56.6753 47.9994 56.7876 47.8364 56.8642 47.6569C56.9407 47.4774 56.98 47.2849 56.9798 47.0906V47.0895C56.9798 46.2703 56.2973 45.607 55.4542 45.607H46.5796C46.0218 45.607 45.5695 45.1674 45.5695 44.6252ZM25.027 48.0712C24.1845 48.0712 23.5015 48.735 23.5015 49.5539C23.5015 50.3728 24.1845 51.0365 25.027 51.0365H38.9729C39.8154 51.0365 40.4984 50.3728 40.4984 49.554C40.4984 48.7351 39.8154 48.0712 38.9728 48.0712H25.027ZM21.4813 49.5539C21.4813 47.6507 23.0688 46.1078 25.027 46.1078H38.9728C40.9311 46.1078 42.5185 47.6506 42.5186 49.5538M42.5186 49.5538C42.5187 51.4573 40.931 53 38.9729 53H25.027C23.0688 53 21.4813 51.4573 21.4813 49.5539" fill="#1E1E1E"/>
</svg>
