<svg width="64" height="64" viewBox="0 0 64 64" fill="none" xmlns="http://www.w3.org/2000/svg">
<rect x="7" y="25" width="46" height="30" fill="#FFD188"/>
<path d="M61.8635 32.9892C61.8429 32.7201 61.7219 32.4687 61.5247 32.2853C61.3275 32.1019 61.0687 32 60.7999 32H45.4946L44.7986 18.0179C44.7849 17.7433 44.6667 17.4846 44.4684 17.2951C44.2701 17.1057 44.0069 17 43.7333 17H36.2666V11.6429C36.2672 10.1001 35.899 8.57964 35.1931 7.20941C34.4872 5.83917 33.4642 4.65914 32.21 3.76849C30.9559 2.87783 29.5072 2.30257 27.9857 2.09103C26.4643 1.8795 24.9145 2.03789 23.4666 2.55287C22.0188 2.03789 20.469 1.8795 18.9475 2.09103C17.4261 2.30257 15.9774 2.87783 14.7232 3.76849C13.4691 4.65914 12.4461 5.83917 11.7402 7.20941C11.0343 8.57964 10.6661 10.1001 10.6667 11.6429V17H3.2C2.92633 17 2.66314 17.1057 2.46485 17.2951C2.26656 17.4846 2.14835 17.7433 2.13466 18.0179L0.00133423 60.875C-0.00589414 61.02 0.0163033 61.165 0.0665784 61.3012C0.116854 61.4373 0.194157 61.5618 0.293793 61.667C0.393429 61.7722 0.513319 61.856 0.64618 61.9132C0.77904 61.9705 0.922099 62 1.06667 62H62.9333C63.0802 62 63.2256 61.9695 63.3603 61.9104C63.495 61.8513 63.6161 61.7649 63.716 61.6566C63.8158 61.5482 63.8923 61.4203 63.9407 61.2809C63.989 61.1415 64.0081 60.9935 63.9969 60.8463L61.8635 32.9892ZM58.6666 56.4315L60.9402 59.8571H56.3935L58.6666 56.4315ZM61.5567 56.9229L59.7015 54.1278L57.7119 34.1429H59.8122L61.5567 56.9229ZM55.5679 34.1429L57.5679 54.2249L55.2266 57.7518L53.4185 34.1429H55.5679ZM43.3586 32H41.351L40.5979 19.1429H42.7179L43.3586 32ZM38.4609 19.1429L39.214 32H36.9606L36.3206 19.1429H38.4609ZM26.6666 4.14287C28.6462 4.14514 30.5441 4.93605 31.9439 6.34208C33.3436 7.74811 34.131 9.65444 34.1333 11.6429V17H29.8666V11.6429C29.8666 10.2063 29.5466 8.78799 28.93 7.49184C28.3133 6.19568 27.4158 5.05455 26.303 4.15211C26.4241 4.14614 26.5454 4.14306 26.6666 4.14287ZM23.4666 4.86796C24.7424 5.47702 25.8202 6.43663 26.5753 7.63566C27.3304 8.8347 27.7319 10.2241 27.7333 11.6429V17H19.2V11.6429C19.2013 10.2241 19.6028 8.8347 20.358 7.63566C21.1131 6.43663 22.1909 5.47702 23.4666 4.86796ZM12.8 11.6429C12.8022 9.65444 13.5896 7.74811 14.9894 6.34208C16.3892 4.93605 18.2871 4.14514 20.2666 4.14287C20.3886 4.14287 20.5097 4.14636 20.6302 4.15211C19.5175 5.05454 18.6199 6.19565 18.0033 7.49182C17.3866 8.78798 17.0666 10.2063 17.0666 11.6429V17H12.8V11.6429ZM25.6789 59.8571H2.188L4.21466 19.1429H10.6667V26.0695L7.94159 27.8943C7.7955 27.9921 7.67571 28.1247 7.59286 28.2802C7.51001 28.4357 7.46666 28.6093 7.46666 28.7857V37.3571C7.46666 37.6413 7.57904 37.9138 7.77908 38.1148C7.97912 38.3157 8.25043 38.4286 8.53332 38.4286H14.9333C15.2162 38.4286 15.4875 38.3157 15.6876 38.1148C15.8876 37.9138 16 37.6413 16 37.3571V28.7857C16 28.6093 15.9566 28.4357 15.8738 28.2802C15.7909 28.1247 15.6711 27.9921 15.525 27.8943L12.8 26.0695V19.1429H27.7333V22.3572C27.7333 22.6413 27.8457 22.9138 28.0457 23.1148C28.2458 23.3157 28.5171 23.4286 28.8 23.4286C29.0829 23.4286 29.3542 23.3157 29.5542 23.1148C29.7543 22.9138 29.8666 22.6413 29.8666 22.3572V19.1429H34.1853L34.8253 32H28.8C28.5312 32 28.2724 32.1019 28.0752 32.2853C27.878 32.4687 27.757 32.7201 27.7364 32.9892L25.6789 59.8571ZM11.7333 27.9306L13.8667 29.3591V36.2857H9.59999V29.3591L11.7333 27.9306ZM29.7877 34.1429H51.2789L53.2481 59.8571H27.8185L29.7877 34.1429Z" fill="#1E1E1E"/>
<path d="M45.9167 38C45.6293 38 45.3538 38.1129 45.1506 38.3138C44.9475 38.5147 44.8333 38.7873 44.8333 39.0714V47.6429C44.8324 48.495 44.4896 49.3121 43.8804 49.9146C43.2711 50.5172 42.445 50.8562 41.5833 50.8571H39.4167C38.555 50.8562 37.7289 50.5172 37.1196 49.9146C36.5104 49.3121 36.1676 48.495 36.1667 47.6429V39.0714C36.1667 38.7873 36.0525 38.5147 35.8494 38.3138C35.6462 38.1129 35.3707 38 35.0833 38C34.796 38 34.5205 38.1129 34.3173 38.3138C34.1141 38.5147 34 38.7873 34 39.0714V47.6429C34.0016 49.0632 34.5728 50.4249 35.5883 51.4292C36.6038 52.4335 37.9806 52.9984 39.4167 53H41.5833C43.0194 52.9984 44.3962 52.4335 45.4117 51.4292C46.4272 50.4249 46.9984 49.0632 47 47.6429V39.0714C47 38.7873 46.8859 38.5147 46.6827 38.3138C46.4795 38.1129 46.204 38 45.9167 38Z" fill="#1E1E1E"/>
</svg>
