<svg width="64" height="64" viewBox="0 0 64 64" fill="none" xmlns="http://www.w3.org/2000/svg">
<rect x="6" y="50" width="24" height="58" transform="rotate(-90 6 50)" fill="#FFD188"/>
<path d="M35.625 35.5H33.375C33.0766 35.5 32.7905 35.3771 32.5795 35.1583C32.3685 34.9395 32.25 34.6428 32.25 34.3333H30C30 35.2616 30.3556 36.1518 30.9885 36.8082C31.6214 37.4646 32.4799 37.8333 33.375 37.8333V39H35.625V37.8333C36.5201 37.8333 37.3785 37.4646 38.0115 36.8082C38.6444 36.1518 39 35.2616 39 34.3333C39 33.4051 38.6444 32.5148 38.0115 31.8585C37.3785 31.2021 36.5201 30.8333 35.625 30.8333H33.375C33.0766 30.8333 32.7905 30.7104 32.5795 30.4916C32.3685 30.2728 32.25 29.9761 32.25 29.6667C32.25 29.3572 32.3685 29.0605 32.5795 28.8417C32.7905 28.6229 33.0766 28.5 33.375 28.5H35.625C35.9234 28.5 36.2095 28.6229 36.4205 28.8417C36.6315 29.0605 36.75 29.3572 36.75 29.6667H39C39 28.7384 38.6444 27.8482 38.0115 27.1918C37.3785 26.5354 36.5201 26.1667 35.625 26.1667V25H33.375V26.1667C32.4799 26.1667 31.6214 26.5354 30.9885 27.1918C30.3556 27.8482 30 28.7384 30 29.6667C30 30.5949 30.3556 31.4852 30.9885 32.1415C31.6214 32.7979 32.4799 33.1667 33.375 33.1667H35.625C35.9234 33.1667 36.2095 33.2896 36.4205 33.5084C36.6315 33.7272 36.75 34.0239 36.75 34.3333C36.75 34.6428 36.6315 34.9395 36.4205 35.1583C36.2095 35.3771 35.9234 35.5 35.625 35.5Z" fill="#1E1E1E"/>
<path d="M24 31.5C24 33.5767 24.6158 35.6068 25.7696 37.3335C26.9233 39.0602 28.5632 40.406 30.4818 41.2007C32.4004 41.9955 34.5116 42.2034 36.5484 41.7982C38.5852 41.3931 40.4562 40.3931 41.9246 38.9246C43.3931 37.4562 44.3931 35.5852 44.7982 33.5484C45.2034 31.5116 44.9955 29.4004 44.2007 27.4818C43.406 25.5632 42.0602 23.9233 40.3335 22.7696C38.6068 21.6158 36.5767 21 34.5 21C31.7162 21.0031 29.0472 22.1103 27.0788 24.0788C25.1103 26.0472 24.0031 28.7162 24 31.5ZM34.5 23.1C36.1614 23.1 37.7854 23.5927 39.1668 24.5157C40.5482 25.4387 41.6248 26.7506 42.2606 28.2855C42.8964 29.8204 43.0627 31.5093 42.7386 33.1388C42.4145 34.7682 41.6145 36.2649 40.4397 37.4397C39.2649 38.6145 37.7682 39.4145 36.1388 39.7386C34.5093 40.0627 32.8204 39.8964 31.2855 39.2606C29.7506 38.6248 28.4387 37.5482 27.5157 36.1668C26.5927 34.7854 26.1 33.1614 26.1 31.5C26.1025 29.2729 26.9883 27.1378 28.5631 25.5631C30.1378 23.9883 32.2729 23.1025 34.5 23.1Z" fill="#1E1E1E"/>
<path d="M37.1001 12H31.8999C31.5551 12 31.2244 12.1318 30.9806 12.3665C30.7368 12.6012 30.5998 12.9195 30.5998 13.2514V17.4921H29.2998C29.0427 17.4922 28.7914 17.5656 28.5777 17.7031C28.3639 17.8406 28.1973 18.036 28.0989 18.2646C28.0006 18.4932 27.9748 18.7448 28.025 18.9875C28.0751 19.2302 28.1989 19.4532 28.3806 19.6282L33.5809 24.6336C33.8247 24.8682 34.1553 25 34.5 25C34.8447 25 35.1753 24.8682 35.4191 24.6336L40.6194 19.6282C40.8011 19.4532 40.9249 19.2302 40.975 18.9875C41.0252 18.7448 40.9994 18.4932 40.9011 18.2646C40.8027 18.036 40.6361 17.8406 40.4223 17.7031C40.2086 17.5656 39.9573 17.4922 39.7002 17.4921H38.4002V13.2514C38.4002 12.9195 38.2632 12.6012 38.0194 12.3665C37.7756 12.1318 37.4449 12 37.1001 12ZM34.5 21.9795L32.3562 19.916C32.6042 19.8265 32.8178 19.6663 32.9686 19.4568C33.1194 19.2472 33.2001 18.9984 33.1999 18.7435V14.5027H35.8001V18.7435C35.7999 18.9984 35.8806 19.2472 36.0314 19.4568C36.1822 19.6663 36.3958 19.8265 36.6438 19.916L34.5 21.9795Z" fill="#F4F7FF"/>
<path d="M36.7001 12H32.2999C32.0082 12 31.7284 12.1014 31.5221 12.2819C31.3158 12.4625 31.1999 12.7073 31.1999 12.9626V16.2247H30.0998C29.8823 16.2247 29.6696 16.2812 29.4888 16.387C29.3079 16.4928 29.167 16.6431 29.0837 16.8189C29.0005 16.9948 28.9787 17.1883 29.0211 17.375C29.0636 17.5617 29.1683 17.7332 29.3221 17.8678L33.7223 21.7182C33.9286 21.8986 34.2083 22 34.5 22C34.7917 22 35.0714 21.8986 35.2777 21.7182L39.6779 17.8678C39.8317 17.7332 39.9364 17.5617 39.9789 17.375C40.0213 17.1883 39.9995 16.9948 39.9163 16.8189C39.833 16.6431 39.6921 16.4928 39.5112 16.387C39.3304 16.2812 39.1177 16.2247 38.9002 16.2247H37.8001V12.9626C37.8001 12.7073 37.6842 12.4625 37.4779 12.2819C37.2716 12.1014 36.9918 12 36.7001 12ZM34.5 19.6765L32.686 18.0892C32.8958 18.0204 33.0766 17.8972 33.2042 17.736C33.3318 17.5748 33.4001 17.3834 33.4 17.1873V13.9252H35.6V17.1873C35.5999 17.3834 35.6682 17.5748 35.7958 17.736C35.9234 17.8972 36.1042 18.0204 36.314 18.0892L34.5 19.6765Z" fill="#1E1E1E"/>
<path d="M59.9993 31.6273C59.9975 31.0265 59.8679 30.4331 59.6195 29.8874C59.371 29.3417 59.0095 28.8565 58.5594 28.4646C59.2021 27.9041 59.6596 27.1576 59.8702 26.3259C60.0808 25.4942 60.0343 24.6171 59.737 23.813C59.4398 23.0088 58.9061 22.3161 58.2078 21.8283C57.5095 21.3406 56.6802 21.0811 55.8317 21.0849H53.7479V7.37971C53.7457 5.42317 52.9766 3.54741 51.6093 2.16393C50.242 0.780452 48.3882 0.00223222 46.4546 0H23.5328C21.5991 0.00223222 19.7453 0.780452 18.378 2.16393C17.0108 3.54741 16.2416 5.42317 16.2394 7.37971V13.2371C15.6087 12.8576 14.8894 12.6553 14.1556 12.6509H11.0299C10.7536 12.6509 10.4886 12.762 10.2932 12.9597C10.0978 13.1574 9.98803 13.4256 9.98803 13.7052V47.0045L3 54.0753L4.47325 55.566L11.7666 48.1863C11.962 47.9887 12.0718 47.7206 12.0718 47.441V14.7594H14.1556C14.7083 14.7594 15.2383 14.9816 15.6291 15.377C16.0199 15.7724 16.2394 16.3087 16.2394 16.8679V25.3019C16.2395 25.4932 16.291 25.6808 16.3884 25.8448L17.4303 27.6096C18.6951 29.7393 19.3639 32.1768 19.3651 34.6614V36.1954C19.3654 38.1087 18.8507 39.986 17.8763 41.6258L19.6621 42.7138C20.8312 40.7452 21.4489 38.492 21.449 36.1954V34.6614C21.4489 31.7951 20.679 28.9826 19.2214 26.5248L18.3232 25.0098V7.37971C18.3249 5.98221 18.8743 4.64243 19.8509 3.65424C20.8275 2.66606 22.1516 2.11016 23.5328 2.10849H46.4546C47.8357 2.11016 49.1598 2.66606 50.1364 3.65424C51.1131 4.64243 51.6624 5.98221 51.6641 7.37971V21.0849C50.8156 21.0811 49.9863 21.3406 49.288 21.8283C48.5897 22.3161 48.056 23.0088 47.7588 23.813C47.4615 24.6171 47.415 25.4942 47.6256 26.3259C47.8362 27.1576 48.2937 27.9041 48.9364 28.4646C48.4848 28.8552 48.1223 29.3402 47.8737 29.8862C47.6251 30.4322 47.4964 31.0262 47.4964 31.6273C47.4964 32.2285 47.6251 32.8225 47.8737 33.3684C48.1223 33.9144 48.4848 34.3994 48.9364 34.7901C48.4848 35.1807 48.1223 35.6657 47.8737 36.2117C47.6251 36.7577 47.4964 37.3517 47.4964 37.9528C47.4964 38.5539 47.6251 39.1479 47.8737 39.6939C48.1223 40.2399 48.4848 40.7249 48.9364 41.1155C48.2937 41.6761 47.8362 42.4225 47.6256 43.2542C47.415 44.0859 47.4615 44.963 47.7588 45.7672C48.056 46.5713 48.5897 47.264 49.288 47.7518C49.9863 48.2396 50.8156 48.499 51.6641 48.4952V49.5495C51.6624 50.947 51.1131 52.2868 50.1364 53.2749C49.1598 54.2631 47.8357 54.819 46.4546 54.8207H23.5328C22.1516 54.819 20.8275 54.2631 19.8509 53.2749C18.8743 52.2868 18.3249 50.947 18.3232 49.5495V44.2783H16.2394V49.5495C16.2416 51.506 17.0108 53.3818 18.378 54.7653C19.7453 56.1487 21.5991 56.927 23.5328 56.9292H36.6461L31.1313 62.5093L32.6046 64L39.5926 56.9292H46.4546C48.3882 56.927 50.242 56.1487 51.6093 54.7653C52.9766 53.3818 53.7457 51.506 53.7479 49.5495V48.4952H55.8317C56.6802 48.499 57.5095 48.2396 58.2078 47.7518C58.9061 47.264 59.4398 46.5713 59.737 45.7672C60.0343 44.963 60.0808 44.0859 59.8702 43.2542C59.6596 42.4225 59.2021 41.6761 58.5594 41.1155C59.011 40.7249 59.3735 40.2399 59.6221 39.6939C59.8707 39.1479 59.9994 38.5539 59.9994 37.9528C59.9994 37.3517 59.8707 36.7577 59.6221 36.2117C59.3735 35.6657 59.011 35.1807 58.5594 34.7901C59.0095 34.3982 59.371 33.9129 59.6195 33.3672C59.8679 32.8215 59.9975 32.2281 59.9993 31.6273ZM49.5803 25.3019C49.5803 24.7427 49.7998 24.2064 50.1906 23.8109C50.5814 23.4155 51.1114 23.1934 51.6641 23.1934H55.8317C56.3844 23.1934 56.9144 23.4155 57.3052 23.8109C57.696 24.2064 57.9155 24.7427 57.9155 25.3019C57.9155 25.8611 57.696 26.3974 57.3052 26.7928C56.9144 27.1882 56.3844 27.4103 55.8317 27.4103H51.6641C51.1114 27.4103 50.5814 27.1882 50.1906 26.7928C49.7998 26.3974 49.5803 25.8611 49.5803 25.3019ZM57.9155 44.2783C57.9155 44.8375 57.696 45.3738 57.3052 45.7692C56.9144 46.1646 56.3844 46.3867 55.8317 46.3867H51.6641C51.1114 46.3867 50.5814 46.1646 50.1906 45.7692C49.7998 45.3738 49.5803 44.8375 49.5803 44.2783C49.5803 43.719 49.7998 43.1827 50.1906 42.7873C50.5814 42.3919 51.1114 42.1698 51.6641 42.1698H55.8317C56.3844 42.1698 56.9144 42.3919 57.3052 42.7873C57.696 43.1827 57.9155 43.719 57.9155 44.2783ZM57.9155 37.9528C57.9155 38.512 57.696 39.0483 57.3052 39.4437C56.9144 39.8391 56.3844 40.0613 55.8317 40.0613H51.6641C51.1114 40.0613 50.5814 39.8391 50.1906 39.4437C49.7998 39.0483 49.5803 38.512 49.5803 37.9528C49.5803 37.3936 49.7998 36.8573 50.1906 36.4619C50.5814 36.0664 51.1114 35.8443 51.6641 35.8443H55.8317C56.3844 35.8443 56.9144 36.0664 57.3052 36.4619C57.696 36.8573 57.9155 37.3936 57.9155 37.9528ZM51.6641 33.7358C51.1114 33.7358 50.5814 33.5137 50.1906 33.1183C49.7998 32.7228 49.5803 32.1865 49.5803 31.6273C49.5803 31.0681 49.7998 30.5318 50.1906 30.1364C50.5814 29.741 51.1114 29.5188 51.6641 29.5188H55.8317C56.3844 29.5188 56.9144 29.741 57.3052 30.1364C57.696 30.5318 57.9155 31.0681 57.9155 31.6273C57.9155 32.1865 57.696 32.7228 57.3052 33.1183C56.9144 33.5137 56.3844 33.7358 55.8317 33.7358H51.6641Z" fill="#1E1E1E"/>
<path d="M32.3 47C31.4248 47 30.5854 47.3688 29.9665 48.0251C29.3477 48.6815 29 49.5717 29 50.5C29 51.4283 29.3477 52.3185 29.9665 52.9749C30.5854 53.6313 31.4248 54 32.3 54H36.7C37.5752 54 38.4146 53.6313 39.0335 52.9749C39.6523 52.3185 40 51.4283 40 50.5C40 49.5717 39.6523 48.6815 39.0335 48.0251C38.4146 47.3688 37.5752 47 36.7 47H32.3ZM37.8 50.5C37.8 50.8094 37.6841 51.1062 37.4778 51.325C37.2715 51.5438 36.9917 51.6667 36.7 51.6667H32.3C32.0083 51.6667 31.7285 51.5438 31.5222 51.325C31.3159 51.1062 31.2 50.8094 31.2 50.5C31.2 50.1906 31.3159 49.8938 31.5222 49.675C31.7285 49.4562 32.0083 49.3333 32.3 49.3333H36.7C36.9917 49.3333 37.2715 49.4562 37.4778 49.675C37.6841 49.8938 37.8 50.1906 37.8 50.5Z" fill="#1E1E1E"/>
<path d="M27 5H29.3333V7H27V5ZM31.6667 5H41V7H31.6667V5Z" fill="#1E1E1E"/>
</svg>
