<svg width="64" height="64" viewBox="0 0 64 64" fill="none" xmlns="http://www.w3.org/2000/svg">
<g clip-path="url(#clip0_817_2106)">
<circle cx="42" cy="42" r="22" fill="#A2D7FF"/>
<path d="M19 5H21.1667V7H19V5ZM23.3333 5H32V7H23.3333V5Z" fill="#1E1E1E"/>
<path d="M41.8537 45.8667C41.852 47.2806 41.2861 48.6362 40.2802 49.636C39.2742 50.6359 37.9104 51.1983 36.4878 51.2H16.8832L20.5727 44.8491C20.456 45.176 20.3944 45.5198 20.3903 45.8667C20.3903 46.7154 20.7295 47.5293 21.3332 48.1294C21.937 48.7295 22.7559 49.0667 23.6098 49.0667H27.9025C28.7563 49.0667 29.5752 48.7295 30.179 48.1294C30.7828 47.5293 31.122 46.7154 31.122 45.8667C31.122 45.018 30.7828 44.204 30.179 43.6039C29.5752 43.0038 28.7563 42.6667 27.9025 42.6667H23.6098C23.0988 42.6676 22.5954 42.7898 22.1415 43.023C21.6875 43.2562 21.2961 43.5937 20.9998 44.0075C21.426 43.0095 21.453 41.8876 21.0753 40.8706C20.6975 39.8535 19.9436 39.0181 18.9672 38.5348C17.9909 38.0515 16.8658 37.9568 15.8216 38.2699C14.7773 38.583 13.8927 39.2804 13.3481 40.2197L9.69936 46.5045C9.67288 46.2929 9.65926 46.0799 9.65858 45.8667V7.46667C9.66028 6.0527 10.2262 4.69713 11.2321 3.6973C12.238 2.69747 13.6018 2.13503 15.0244 2.13333H36.4878C37.4293 2.13551 38.3537 2.38286 39.169 2.85074C39.9843 3.31862 40.662 3.9907 41.1346 4.8L42.9923 3.73333C42.3308 2.60047 41.3821 1.65966 40.2409 1.00464C39.0996 0.349612 37.8057 0.00323077 36.4878 0H15.0244C13.0328 0.00225852 11.1233 0.789648 9.71502 2.18943C8.3067 3.58921 7.51451 5.48708 7.51224 7.46667V28.0533C6.8293 28.3692 6.27941 28.9131 5.95829 29.5904L1.08717 40.0939C0.366073 41.6346 -0.00507796 43.3141 5.24718e-05 45.0133V64H2.14639V45.0133C2.1416 43.6239 2.445 42.2505 3.03498 40.9909L7.51224 31.3355V45.8667C7.5115 47.1407 7.84002 48.3935 8.46629 49.5051C8.54708 49.6849 8.6764 49.839 8.83991 49.9503C9.00341 50.0616 9.19472 50.1257 9.39264 50.1355C9.59055 50.1453 9.78733 50.1005 9.96119 50.006C10.135 49.9115 10.2792 49.7709 10.3776 49.6L15.2069 41.2864C15.4935 40.8004 15.9619 40.4468 16.5099 40.3029C17.0578 40.1589 17.6408 40.2361 18.1317 40.5178C18.6225 40.7995 18.9813 41.2627 19.1298 41.8064C19.2783 42.35 19.2045 42.93 18.9243 43.4197L14.0951 51.7333C13.9991 51.8984 13.9494 52.0859 13.9511 52.2765C13.9528 52.4671 14.0058 52.6538 14.1047 52.8171L16.4034 56.6144C16.9049 57.4451 17.1701 58.3955 17.1708 59.3643V63.9893H19.3171V59.3643C19.3169 58.0085 18.946 56.6782 18.2439 55.5157L16.9229 53.3333H36.4878C38.4795 53.3311 40.3889 52.5437 41.7972 51.1439C43.2055 49.7441 43.9977 47.8463 44 45.8667V40.5333H41.8537V45.8667ZM23.6098 44.8H27.9025C28.1871 44.8 28.46 44.9124 28.6613 45.1124C28.8626 45.3125 28.9756 45.5838 28.9756 45.8667C28.9756 46.1496 28.8626 46.4209 28.6613 46.6209C28.46 46.821 28.1871 46.9333 27.9025 46.9333H23.6098C23.3252 46.9333 23.0522 46.821 22.8509 46.6209C22.6497 46.4209 22.5366 46.1496 22.5366 45.8667C22.5366 45.5838 22.6497 45.3125 22.8509 45.1124C23.0522 44.9124 23.3252 44.8 23.6098 44.8Z" fill="#1E1E1E"/>
<path d="M60.9685 13.2602C58.6138 9.84164 55.1019 7.42079 51.1015 6.45854C47.101 5.4963 42.8914 6.05987 39.2741 8.04196C35.6568 10.024 32.8844 13.2862 31.4849 17.2074C30.0854 21.1285 30.1564 25.4347 31.6845 29.3062L28.1457 35.3911C28.0436 35.5663 27.9933 35.7675 28.0007 35.9708C28.0081 36.1742 28.073 36.371 28.1876 36.5381C28.3051 36.7047 28.4669 36.8341 28.6541 36.9112C28.8413 36.9883 29.0462 37.0099 29.245 36.9735L36.0818 35.6779C38.4033 37.7887 41.2613 39.1977 44.332 39.7451C45.2968 39.9134 46.274 39.9986 47.253 40C50.3175 39.9991 53.323 39.1456 55.9424 37.5325C58.5618 35.9193 60.6948 33.6082 62.1091 30.8508C63.5235 28.0934 64.165 24.9953 63.9639 21.8937C63.7628 18.7921 62.7267 15.8059 60.9685 13.2602ZM61.6804 25.5894C61.2199 28.2385 60.0595 30.7113 58.3227 32.7442C56.5859 34.7772 54.3378 36.294 51.8181 37.1332C49.2984 37.9724 46.6014 38.1025 44.0145 37.5096C41.4277 36.9167 39.0479 35.623 37.1288 33.7664C36.9324 33.5815 36.6742 33.479 36.4063 33.4796C36.3433 33.4779 36.2803 33.4814 36.2179 33.4903L31.1191 34.4566L33.7575 29.9327C33.8395 29.787 33.8878 29.6243 33.8987 29.4569C33.9095 29.2895 33.8828 29.1217 33.8203 28.9664C32.6526 26.286 32.299 23.3135 32.8047 20.4283C33.4795 16.5444 35.6477 13.0915 38.8325 10.8291C40.4094 9.70888 42.1884 8.91466 44.0679 8.49181C45.9475 8.06895 47.8907 8.02573 49.7867 8.36461C51.6827 8.70349 53.4944 9.41783 55.1182 10.4669C56.742 11.5159 58.1462 12.879 59.2507 14.4785C60.3551 16.078 61.1381 17.8824 61.555 19.7888C61.9719 21.6952 62.0145 23.6663 61.6804 25.5894Z" fill="#1E1E1E"/>
<path d="M53.952 17H50.8079V16C50.8079 14.9391 50.3663 13.9217 49.5801 13.1716C48.794 12.4214 47.7277 12 46.6159 12C45.5041 12 44.4378 12.4214 43.6516 13.1716C42.8655 13.9217 42.4238 14.9391 42.4238 16V17H39.2798C39.0018 17 38.7353 17.1054 38.5387 17.2929C38.3422 17.4804 38.2318 17.7348 38.2318 18V30C38.2343 30.7949 38.5663 31.5566 39.1554 32.1187C39.7445 32.6808 40.5427 32.9976 41.3758 33H51.856C52.689 32.9976 53.4873 32.6808 54.0764 32.1187C54.6655 31.5566 54.9975 30.7949 55 30V18C55 17.7348 54.8896 17.4804 54.693 17.2929C54.4965 17.1054 54.2299 17 53.952 17ZM44.5199 16C44.5199 15.4696 44.7407 14.9609 45.1338 14.5858C45.5268 14.2107 46.06 14 46.6159 14C47.1718 14 47.7049 14.2107 48.098 14.5858C48.4911 14.9609 48.7119 15.4696 48.7119 16V17H44.5199V16ZM52.904 30C52.904 30.2652 52.7936 30.5196 52.597 30.7071C52.4005 30.8946 52.1339 31 51.856 31H41.3758C41.0979 31 40.8313 30.8946 40.6347 30.7071C40.4382 30.5196 40.3278 30.2652 40.3278 30V29H52.904V30ZM52.904 27H40.3278V19H42.4238V21H44.5199V19H48.7119V21H50.8079V19H52.904V27ZM21.7706 15.293L20.1567 16.833C19.0703 16.1469 17.7556 15.8702 16.4676 16.0567C15.1796 16.2431 14.01 16.8793 13.1857 17.8419C12.3615 18.8046 11.9413 20.025 12.0066 21.2665C12.072 22.508 12.6182 23.6821 13.5394 24.5611C14.4606 25.4401 15.6911 25.9613 16.9922 26.0236C18.2933 26.086 19.5723 25.685 20.5812 24.8985C21.59 24.112 22.2568 22.9961 22.4522 21.767C22.6475 20.538 22.3576 19.2836 21.6385 18.247L23.2525 16.707L21.7706 15.293ZM20.4155 21C20.4155 21.5933 20.2311 22.1734 19.8856 22.6667C19.5402 23.1601 19.0491 23.5446 18.4746 23.7716C17.9001 23.9987 17.268 24.0581 16.6581 23.9424C16.0482 23.8266 15.488 23.5409 15.0483 23.1213C14.6086 22.7018 14.3091 22.1672 14.1878 21.5853C14.0665 21.0033 14.1288 20.4001 14.3667 19.8519C14.6047 19.3038 15.0077 18.8352 15.5247 18.5056C16.0418 18.1759 16.6496 18 17.2715 18C17.7383 18.0017 18.1988 18.1043 18.6182 18.3L15.4825 21.292L16.9644 22.706L20.1011 19.715C20.3062 20.1152 20.4137 20.5545 20.4155 21ZM24.6076 18H28.7996V20H24.6076V18ZM24.6076 22H28.7996V24H24.6076V22Z" fill="#1E1E1E"/>
</g>
<defs>
<clipPath id="clip0_817_2106">
<rect width="64" height="64" fill="white"/>
</clipPath>
</defs>
</svg>
