<svg width="64" height="64" viewBox="0 0 64 64" fill="none" xmlns="http://www.w3.org/2000/svg">
<g clip-path="url(#clip0_817_5195)">
<circle cx="32" cy="32" r="25" fill="#FFD188"/>
<path d="M57.0561 20.8579L55.9998 21.738C56.3131 22.1105 56.4843 22.5769 56.4843 23.0582C56.4843 23.5395 56.3131 24.0059 55.9998 24.3784L57.0561 25.2585C57.5784 24.6378 57.8638 23.8604 57.8638 23.0582C57.8638 22.256 57.5784 21.4786 57.0561 20.8579Z" fill="black"/>
<path d="M59.0044 27.1947C60.0757 26.07 60.6709 24.593 60.6709 23.0595C60.6709 21.526 60.0757 20.0491 59.0044 18.9243L57.9816 19.8424C58.8149 20.717 59.2778 21.8656 59.2778 23.0582C59.2778 24.2508 58.8149 25.3994 57.9816 26.274L59.0044 27.1947Z" fill="black"/>
<path d="M62.0659 23.0593C62.0706 24.9677 61.317 26.804 59.9625 28.1843L60.9693 29.1186C62.5667 27.4841 63.4575 25.3148 63.4575 23.0593C63.4575 20.8038 62.5667 18.6345 60.9693 17L59.9625 17.9343C61.317 19.3146 62.0706 21.1509 62.0659 23.0593Z" fill="black"/>
<path d="M22.4866 6.0542H24.6487V7.78393H22.4866V6.0542ZM26.8109 6.0542H35.4595V7.78393H26.8109V6.0542Z" fill="#1E1E1E"/>
<path d="M57.0001 46C56.0586 45.9962 55.1469 46.3297 54.4301 46.94C54.0736 46.3489 53.5705 45.8597 52.9697 45.5199C52.3688 45.18 51.6904 45.001 51.0001 45C50.0586 44.9962 49.1469 45.3297 48.4301 45.94C48.0797 45.3597 47.5877 44.878 47.0001 44.54V34H50.0001C50.795 33.9976 51.5567 33.6808 52.1188 33.1187C52.6809 32.5566 52.9977 31.7949 53.0001 31V15C52.9977 14.2051 52.6809 13.4434 52.1188 12.8813C51.5567 12.3192 50.795 12.0024 50.0001 12H47.0001V9C46.998 7.14413 46.2598 5.36489 44.9475 4.05259C43.6352 2.7403 41.8559 2.00212 40.0001 2H18.0001C16.1442 2.00212 14.365 2.7403 13.0527 4.05259C11.7404 5.36489 11.0022 7.14413 11.0001 9V27.26C10.3486 27.4716 9.7477 27.8152 9.23497 28.2695C8.72223 28.7237 8.30866 29.2788 8.02007 29.9L4.01007 38.59C3.33902 40.0339 2.99419 41.6078 3.00007 43.2V62H5.00007V43.2C4.99639 41.8976 5.27977 40.6104 5.83007 39.43L9.84008 30.74C10.0869 30.2074 10.492 29.7639 11.0001 29.47V47C11.0015 47.3316 11.0282 47.6625 11.0801 47.99L10.4401 49.1L12.1701 50.1L18.1701 39.71C18.2951 39.471 18.4672 39.2597 18.676 39.089C18.8848 38.9182 19.1259 38.7914 19.385 38.7162C19.6441 38.6411 19.9156 38.6191 20.1834 38.6516C20.4512 38.6842 20.7096 38.7705 20.9431 38.9055C21.1767 39.0405 21.3805 39.2213 21.5423 39.4371C21.7041 39.6529 21.8206 39.8992 21.8848 40.1612C21.949 40.4232 21.9595 40.6955 21.9157 40.9616C21.872 41.2278 21.7748 41.4824 21.6301 41.71L17.1301 49.5C17.0431 49.6563 16.9983 49.8325 17.0001 50.0113C17.0018 50.1902 17.0501 50.3655 17.1401 50.52L19.2801 54.08C19.7491 54.8553 19.998 55.7438 20.0001 56.65V61.99H22.0001V56.65C21.9952 55.7408 21.8153 54.8411 21.4701 54H27.5401C27.6242 54.3636 27.7589 54.7137 27.9401 55.04L32.2501 62.5L33.9801 61.5L29.6701 54.04C29.5374 53.8127 29.4513 53.5611 29.417 53.3001C29.3827 53.0392 29.4007 52.7739 29.4701 52.52C29.6064 52.0063 29.9408 51.5676 30.4001 51.3C30.8623 51.0409 31.4065 50.9692 31.9201 51.1C32.175 51.1664 32.4137 51.284 32.6217 51.4456C32.8297 51.6072 33.0027 51.8094 33.1301 52.04L35.1301 55.5C35.2425 55.6898 35.4133 55.8381 35.6169 55.9228C35.8206 56.0076 36.0462 56.0241 36.2601 55.97C36.4732 55.9126 36.6613 55.7864 36.7951 55.6109C36.929 55.4355 37.001 55.2207 37.0001 55V38C37.0001 37.4696 37.2108 36.9609 37.5859 36.5858C37.9609 36.2107 38.4696 36 39.0001 36C39.5305 36 40.0392 36.2107 40.4143 36.5858C40.7894 36.9609 41.0001 37.4696 41.0001 38V52C41.0001 52.2652 41.1054 52.5196 41.293 52.7071C41.4805 52.8946 41.7349 53 42.0001 53C42.2653 53 42.5196 52.8946 42.7072 52.7071C42.8947 52.5196 43.0001 52.2652 43.0001 52V48C43.0001 47.4696 43.2108 46.9609 43.5859 46.5858C43.9609 46.2107 44.4696 46 45.0001 46C45.5305 46 46.0392 46.2107 46.4143 46.5858C46.7894 46.9609 47.0001 47.4696 47.0001 48V52C47.0001 52.2652 47.1054 52.5196 47.293 52.7071C47.4805 52.8946 47.7349 53 48.0001 53C48.2653 53 48.5196 52.8946 48.7072 52.7071C48.8947 52.5196 49.0001 52.2652 49.0001 52V49C49.0001 48.4696 49.2108 47.9609 49.5859 47.5858C49.9609 47.2107 50.4696 47 51.0001 47C51.5305 47 52.0392 47.2107 52.4143 47.5858C52.7894 47.9609 53.0001 48.4696 53.0001 49V52C53.0001 52.2652 53.1054 52.5196 53.293 52.7071C53.4805 52.8946 53.7349 53 54.0001 53C54.2653 53 54.5196 52.8946 54.7072 52.7071C54.8947 52.5196 55.0001 52.2652 55.0001 52V50C55.0001 49.4696 55.2108 48.9609 55.5859 48.5858C55.9609 48.2107 56.4696 48 57.0001 48C57.5305 48 58.0392 48.2107 58.4143 48.5858C58.7894 48.9609 59.0001 49.4696 59.0001 50V62H61.0001V50C61.0001 48.9391 60.5787 47.9217 59.8285 47.1716C59.0784 46.4214 58.0609 46 57.0001 46ZM31.0001 48H27.0001C26.7349 48 26.4805 47.8946 26.293 47.7071C26.1054 47.5196 26.0001 47.2652 26.0001 47C26.0001 46.7348 26.1054 46.4804 26.293 46.2929C26.4805 46.1054 26.7349 46 27.0001 46H31.0001C31.2653 46 31.5196 46.1054 31.7072 46.2929C31.8947 46.4804 32.0001 46.7348 32.0001 47C32.0001 47.2652 31.8947 47.5196 31.7072 47.7071C31.5196 47.8946 31.2653 48 31.0001 48ZM45.0001 44C44.2975 44.0007 43.6076 44.187 43.0001 44.54V38C43.0001 36.9391 42.5786 35.9217 41.8285 35.1716C41.0784 34.4214 40.0609 34 39.0001 34C37.9392 34 36.9218 34.4214 36.1716 35.1716C35.4215 35.9217 35.0001 36.9391 35.0001 38V51.27L34.8701 51.04C34.4156 50.2567 33.7061 49.6531 32.8601 49.33C33.2141 49.0533 33.5006 48.6997 33.6981 48.2961C33.8956 47.8925 33.9988 47.4493 34.0001 47C33.9977 46.2051 33.6809 45.4434 33.1188 44.8813C32.5567 44.3192 31.795 44.0024 31.0001 44H27.0001C26.2044 44 25.4414 44.3161 24.8788 44.8787C24.3161 45.4413 24.0001 46.2043 24.0001 47C24.0001 47.7957 24.3161 48.5587 24.8788 49.1213C25.4414 49.6839 26.2044 50 27.0001 50H28.8001C28.1859 50.5225 27.7462 51.2204 27.5401 52H20.3701L19.1601 49.99L23.3701 42.71C23.9005 41.791 24.0442 40.699 23.7694 39.6741C23.4947 38.6492 22.8241 37.7754 21.9051 37.245C20.9861 36.7146 19.8941 36.5709 18.8692 36.8457C17.8443 37.1204 16.9705 37.791 16.4401 38.71L13.0001 44.66V9C13.0001 7.67392 13.5269 6.40215 14.4645 5.46447C15.4022 4.52678 16.674 4 18.0001 4H40.0001C41.3262 4 42.5979 4.52678 43.5356 5.46447C44.4733 6.40215 45.0001 7.67392 45.0001 9V12H24.0001C23.2052 12.0024 22.4435 12.3192 21.8814 12.8813C21.3193 13.4434 21.0025 14.2051 21.0001 15V31C21.0025 31.7949 21.3193 32.5566 21.8814 33.1187C22.4435 33.6808 23.2052 33.9976 24.0001 34H45.0001V44ZM24.0001 32C23.7349 32 23.4805 31.8946 23.293 31.7071C23.1054 31.5196 23.0001 31.2652 23.0001 31V15C23.0001 14.7348 23.1054 14.4804 23.293 14.2929C23.4805 14.1054 23.7349 14 24.0001 14H50.0001C50.2653 14 50.5196 14.1054 50.7072 14.2929C50.8947 14.4804 51.0001 14.7348 51.0001 15V31C51.0001 31.2652 50.8947 31.5196 50.7072 31.7071C50.5196 31.8946 50.2653 32 50.0001 32H24.0001Z" fill="black"/>
<path d="M46 24H43C42.2044 24 41.4413 24.3161 40.8787 24.8787C40.3161 25.4413 40 26.2044 40 27C40 27.7956 40.3161 28.5587 40.8787 29.1213C41.4413 29.6839 42.2044 30 43 30H46C46.7956 30 47.5587 29.6839 48.1213 29.1213C48.6839 28.5587 49 27.7956 49 27C49 26.2044 48.6839 25.4413 48.1213 24.8787C47.5587 24.3161 46.7956 24 46 24ZM46 28H43C42.7348 28 42.4804 27.8946 42.2929 27.7071C42.1054 27.5196 42 27.2652 42 27C42 26.7348 42.1054 26.4804 42.2929 26.2929C42.4804 26.1054 42.7348 26 43 26H46C46.2652 26 46.5196 26.1054 46.7071 26.2929C46.8946 26.4804 47 26.7348 47 27C47 27.2652 46.8946 27.5196 46.7071 27.7071C46.5196 27.8946 46.2652 28 46 28ZM26 24H34C34.2652 24 34.5196 23.8946 34.7071 23.7071C34.8946 23.5196 35 23.2652 35 23V17C35 16.7348 34.8946 16.4804 34.7071 16.2929C34.5196 16.1054 34.2652 16 34 16H26C25.7348 16 25.4804 16.1054 25.2929 16.2929C25.1054 16.4804 25 16.7348 25 17V23C25 23.2652 25.1054 23.5196 25.2929 23.7071C25.4804 23.8946 25.7348 24 26 24ZM33 22H31V18H33V22ZM27 18H29V22H27V18ZM47 16H49V18H47V16ZM43 16H45V18H43V16ZM39 16H41V18H39V16ZM25 26H27V28H25V26ZM29 26H31V28H29V26ZM33 26H35V28H33V26ZM39 20H49V22H39V20Z" fill="black"/>
</g>
<defs>
<clipPath id="clip0_817_5195">
<rect width="64" height="64" fill="white"/>
</clipPath>
</defs>
</svg>
