<svg width="64" height="64" viewBox="0 0 64 64" fill="none" xmlns="http://www.w3.org/2000/svg">
<rect x="8" y="20" width="56" height="30" fill="#A1D7FF"/>
<path d="M46.625 32.75H48.375C48.6071 32.75 48.8296 32.8466 48.9937 33.0185C49.1578 33.1904 49.25 33.4236 49.25 33.6667H51C51 32.9373 50.7234 32.2378 50.2312 31.7221C49.7389 31.2064 49.0712 30.9167 48.375 30.9167V30H46.625V30.9167C45.9288 30.9167 45.2611 31.2064 44.7688 31.7221C44.2766 32.2378 44 32.9373 44 33.6667C44 34.396 44.2766 35.0955 44.7688 35.6112C45.2611 36.1269 45.9288 36.4167 46.625 36.4167H48.375C48.6071 36.4167 48.8296 36.5132 48.9937 36.6852C49.1578 36.8571 49.25 37.0902 49.25 37.3333C49.25 37.5764 49.1578 37.8096 48.9937 37.9815C48.8296 38.1534 48.6071 38.25 48.375 38.25H46.625C46.3929 38.25 46.1704 38.1534 46.0063 37.9815C45.8422 37.8096 45.75 37.5764 45.75 37.3333H44C44 38.0627 44.2766 38.7622 44.7688 39.2779C45.2611 39.7936 45.9288 40.0833 46.625 40.0833V41H48.375V40.0833C49.0712 40.0833 49.7389 39.7936 50.2312 39.2779C50.7234 38.7622 51 38.0627 51 37.3333C51 36.604 50.7234 35.9045 50.2312 35.3888C49.7389 34.8731 49.0712 34.5833 48.375 34.5833H46.625C46.3929 34.5833 46.1704 34.4868 46.0063 34.3148C45.8422 34.1429 45.75 33.9098 45.75 33.6667C45.75 33.4236 45.8422 33.1904 46.0063 33.0185C46.1704 32.8466 46.3929 32.75 46.625 32.75Z" fill="#1E1E1E"/>
<path d="M58 35.4044C57.9941 32.8536 57.0789 30.3905 55.4222 28.4666C53.7655 26.5428 51.4783 25.2871 48.98 24.93C49.3772 24.2897 49.5973 23.5535 49.6174 22.798C49.6374 22.0425 49.4567 21.2954 49.094 20.6345C48.7313 19.9736 48.1999 19.4232 47.5552 19.0405C46.9105 18.6579 46.1762 18.457 45.4286 18.4589H38.0952C37.8857 18.4589 37.6657 18.4695 37.4562 18.4801L42.1286 12.8351C42.5114 12.4137 42.8059 11.9183 42.9942 11.3787C43.1825 10.8392 43.2607 10.2667 43.2242 9.6957C43.1876 9.12474 43.037 8.56718 42.7815 8.05665C42.526 7.54613 42.1709 7.09322 41.7375 6.72524C41.3041 6.35727 40.8015 6.08186 40.2599 5.91563C39.7184 5.7494 39.1491 5.69579 38.5865 5.75803C38.024 5.82028 37.4797 5.99709 36.9865 6.2778C36.4933 6.55852 36.0615 6.93731 35.7171 7.39134L31.0971 12.9622L34.0724 5.87683C34.2893 5.36452 34.404 4.81391 34.4097 4.25666C34.4154 3.69942 34.3121 3.14652 34.1057 2.62978C33.8993 2.11304 33.5938 1.64265 33.207 1.24567C32.8201 0.848682 32.3594 0.532931 31.8514 0.316577C30.8273 -0.104507 29.6811 -0.105561 28.6562 0.31364C27.6313 0.73284 26.8083 1.5393 26.3619 2.56186L22.381 12.0408V6.80883C22.381 5.68527 21.9395 4.60773 21.1536 3.81326C20.3677 3.01878 19.3019 2.57245 18.1905 2.57245C17.0791 2.57245 16.0132 3.01878 15.2274 3.81326C14.4415 4.60773 14 5.68527 14 6.80883V64H16.0952V46.2919C16.1004 38.5783 18.7849 31.1116 23.68 25.1947L37.3305 8.74698C37.6959 8.33207 38.2048 8.07449 38.7523 8.02721C39.2999 7.97993 39.8445 8.14655 40.2743 8.4928C40.4855 8.66964 40.66 8.88705 40.7877 9.13245C40.9154 9.37786 40.9937 9.6464 41.0181 9.92257C41.0417 10.2021 41.0103 10.4835 40.9258 10.7507C40.8413 11.0179 40.7053 11.2656 40.5257 11.4794L34.3657 18.9249C32.9482 19.262 31.5862 19.8042 30.3219 20.5347L31.359 22.3775C33.4122 21.1975 35.7335 20.5771 38.0952 20.5771H45.4286C45.9843 20.5771 46.5172 20.8002 46.9101 21.1975C47.3031 21.5947 47.5238 22.1335 47.5238 22.6953C47.5238 23.257 47.3031 23.7958 46.9101 24.1931C46.5172 24.5903 45.9843 24.8135 45.4286 24.8135H41.2381C38.4596 24.8135 35.795 25.9293 33.8303 27.9155C31.8656 29.9017 30.7619 32.5955 30.7619 35.4044C30.7619 38.2133 31.8656 40.9072 33.8303 42.8934C35.795 44.8795 38.4596 45.9954 41.2381 45.9954H44.381C44.9366 45.9954 45.4696 46.2185 45.8625 46.6158C46.2554 47.013 46.4762 47.5518 46.4762 48.1136C46.4762 48.6753 46.2554 49.2141 45.8625 49.6114C45.4696 50.0086 44.9366 50.2318 44.381 50.2318H33.9048C33.6269 50.2318 33.3605 50.3433 33.164 50.542C32.9675 50.7406 32.8571 51.01 32.8571 51.2909V64H34.9524V52.3499H44.381C45.4923 52.3499 46.5582 51.9036 47.3441 51.1091C48.1299 50.3147 48.5714 49.2371 48.5714 48.1136C48.5664 47.3591 48.3601 46.62 47.9743 45.9742C50.6695 45.8546 53.2155 44.6893 55.0827 42.7208C56.9499 40.7522 57.9948 38.1318 58 35.4044ZM16.0952 6.80883C16.0952 6.24705 16.316 5.70828 16.7089 5.31105C17.1019 4.91381 17.6348 4.69064 18.1905 4.69064C18.7462 4.69064 19.2791 4.91381 19.672 5.31105C20.065 5.70828 20.2857 6.24705 20.2857 6.80883V17.0397L16.0952 27.0164V6.80883ZM22.0771 23.8391C19.4956 26.9561 17.4714 30.5043 16.0952 34.3241V32.4389L28.2895 3.38795C28.5139 2.87534 28.9279 2.47192 29.4429 2.26407C29.9579 2.05623 30.5329 2.06047 31.0448 2.2759C31.2963 2.38151 31.5242 2.53721 31.715 2.73371C31.9058 2.93022 32.0555 3.16352 32.1552 3.41973C32.2625 3.67823 32.3168 3.95601 32.315 4.23631C32.3132 4.51662 32.2553 4.79366 32.1448 5.05073L26.4876 18.5224L22.0771 23.8391ZM41.2381 43.8772C39.0153 43.8772 36.8836 42.9845 35.3119 41.3956C33.7401 39.8066 32.8571 37.6515 32.8571 35.4044C32.8571 33.1573 33.7401 31.0022 35.3119 29.4133C36.8836 27.8243 39.0153 26.9317 41.2381 26.9317H41.2695C39.9599 27.9122 38.8957 29.1894 38.1625 30.6608C37.4292 32.1322 37.0473 33.7568 37.0473 35.4044C37.0473 37.052 37.4292 38.6766 38.1625 40.148C38.8957 41.6194 39.9599 42.8966 41.2695 43.8772H41.2381ZM47.5238 43.8772C45.8662 43.8772 44.2458 43.3803 42.8676 42.4493C41.4894 41.5183 40.4152 40.195 39.7808 38.6468C39.1465 37.0986 38.9805 35.395 39.3039 33.7515C39.6273 32.1079 40.4255 30.5982 41.5976 29.4133C42.7697 28.2283 44.263 27.4214 45.8888 27.0945C47.5145 26.7675 49.1996 26.9353 50.7311 27.5766C52.2625 28.2179 53.5714 29.3039 54.4923 30.6972C55.4132 32.0905 55.9048 33.7287 55.9048 35.4044C55.9017 37.6506 55.0177 39.8039 53.4467 41.3922C51.8756 42.9804 49.7456 43.8741 47.5238 43.8772Z" fill="#1E1E1E"/>
</svg>
