<svg width="170" height="28" viewBox="0 0 170 28" fill="none" xmlns="http://www.w3.org/2000/svg">
<path fill-rule="evenodd" clip-rule="evenodd" d="M17.4732 1.43896C16.3759 2.03512 16.1906 2.47715 13.9245 9.90204C12.1144 15.8334 11.9434 16.6199 12.2311 17.6862C12.4198 18.3858 12.8968 19.112 13.394 19.4564C14.4665 20.1993 34.6204 26.3216 35.985 26.3191C37.5244 26.3161 38.6938 25.5661 39.2206 24.2437C40.2226 21.7293 43.1622 11.5623 43.1622 10.6116C43.1622 9.08934 42.407 7.91956 41.0827 7.39042C38.3 6.27871 20.2847 0.988897 19.3198 1.00002C18.736 1.00681 17.9051 1.20451 17.4732 1.43896ZM29.7285 6.55486C35.3264 8.2578 40.1001 9.84489 40.3374 10.0815C40.7062 10.4497 40.4905 11.4227 38.8509 16.7929C37.7966 20.2472 36.7429 23.2682 36.51 23.5064C36.1474 23.8764 34.5551 23.4739 25.5098 20.7263C19.5246 18.9082 14.8637 17.3343 14.7737 17.1005C14.585 16.6118 17.9781 5.16237 18.6104 4.15383C18.8501 3.77142 19.1598 3.45882 19.2987 3.45882C19.4373 3.45882 24.1309 4.85193 29.7285 6.55486ZM5.40348 5.54385C5.2324 6.0109 5.03132 6.56722 4.95676 6.77943C4.85251 7.07535 5.74965 7.16555 8.79531 7.16555H12.7697L13.0837 5.92997L13.3977 4.69439H9.55603H5.71408L5.40348 5.54385ZM6.45531 11.799L6.12491 13.0345H8.52338C10.7987 13.0345 10.9311 12.9965 11.1084 12.291C11.2114 11.8821 11.3806 11.326 11.4846 11.0554C11.6476 10.631 11.3383 10.5634 9.22965 10.5634H6.78539L6.45531 11.799ZM0.453711 17.5907C0.282634 18.0581 0.0815498 18.6141 0.00699389 18.8263C-0.0978794 19.1244 0.955184 19.2124 4.62296 19.2124H9.37474L9.56159 18.4689C9.66461 18.0599 9.83383 17.5039 9.93778 17.2333C10.1055 16.7966 9.60088 16.7413 5.44555 16.7413H0.764309L0.453711 17.5907ZM6.33156 22.8419C6.16048 23.3093 5.9594 23.8653 5.88485 24.0775C5.77935 24.3768 6.95678 24.4636 11.1195 24.4636H16.49L16.6769 23.7201C16.7799 23.3111 16.9491 22.7551 17.0531 22.4845C17.2214 22.0462 16.6636 21.9925 11.9421 21.9925H6.64216L6.33156 22.8419Z" fill="#0089EE"/>
<path fill-rule="evenodd" clip-rule="evenodd" d="M20.2998 6.90266C19.7661 8.43107 19.8571 8.57965 21.6279 9.07172L23.2956 9.53537L23.6601 8.32049C23.8605 7.65204 23.9803 7.06947 23.9258 7.0256C23.8281 6.94683 20.8424 5.92995 20.7088 5.92995C20.6704 5.92995 20.4866 6.36766 20.2998 6.90266Z" fill="#1E1E1E"/>
<path fill-rule="evenodd" clip-rule="evenodd" d="M129.96 7.73569C129.96 10.4682 129.959 10.4707 129.327 9.88852C128.913 9.50701 128.059 9.25889 126.856 9.17038C125.294 9.05533 124.81 9.15806 123.649 9.85122C120.28 11.8618 120.265 17.471 123.624 19.4737C125.157 20.3881 128.292 20.3464 129.321 19.3978C129.946 18.8216 129.96 18.8235 129.96 19.4908C129.96 20.0746 130.137 20.1719 131.201 20.1719H132.443V12.586V5H131.201H129.96V7.73569ZM57.6942 9.62301C57.1271 9.91729 56.2891 10.6575 55.8318 11.2682C55.1108 12.231 55 12.6767 55 14.6158C55 17.2475 55.6878 18.5264 57.652 19.547C59.7238 20.6233 63.5609 20.2437 64.696 18.8498C65.0107 18.4632 64.9449 18.2489 64.3301 17.661C63.6258 16.9871 63.537 16.9744 62.8681 17.4514C62.4516 17.7485 61.5309 17.9594 60.6494 17.9594C59.3976 17.9594 58.9888 17.8029 58.2352 17.0354C57.7361 16.5272 57.3279 15.9582 57.3279 15.7711C57.3279 15.5445 58.7433 15.4307 61.5576 15.4307H65.7873L65.6362 13.8269C65.4769 12.1397 64.8288 10.9926 63.4355 9.93341C62.2836 9.05754 59.1142 8.88623 57.6942 9.62301ZM68.7348 9.63313C68.0948 9.90369 67.5708 10.2612 67.5708 10.4281C67.5708 10.6784 68.0988 11.8881 68.3428 12.1966C68.3794 12.243 68.8146 12.066 69.3094 11.8033C70.6422 11.0956 73.0142 11.1753 73.7787 11.9538C74.8461 13.0408 74.5826 13.5326 72.9251 13.5481C69.4593 13.5804 67.5032 14.5232 67.1649 16.3249C66.9364 17.5431 67.6848 19.1039 68.7727 19.6769C69.9692 20.3069 72.2994 20.3132 73.4838 19.6896C74.3045 19.2575 74.3995 19.2575 74.3995 19.6896C74.3995 20.0417 74.735 20.1719 75.641 20.1719H76.8826V16.2051C76.8826 11.7436 76.5849 10.7574 74.9274 9.72858C73.6921 8.96145 70.4438 8.91151 68.7348 9.63313ZM80.886 9.83194C79.4008 10.8504 78.916 11.9883 79.3704 13.3907C79.7938 14.6971 80.6967 15.2401 83.2428 15.7196C84.2587 15.9108 85.2985 16.2797 85.5537 16.5392C86.8393 17.8484 83.3403 18.6032 80.8665 17.55C79.7314 17.0667 79.7286 17.0677 79.3623 17.9676C78.8877 19.1346 79.0609 19.3707 80.7423 19.8502C82.7223 20.4147 85.9712 20.1489 87.042 19.3349C88.5992 18.1509 88.7644 15.6014 87.3453 14.6544C86.9591 14.3971 85.7042 13.9859 84.5564 13.7406C82.0975 13.2159 81.4199 12.7699 81.847 11.9573C82.2645 11.1626 83.9663 10.9237 85.6133 11.4285C87.0107 11.8568 87.0141 11.8558 87.5306 10.9395L88.048 10.0213L86.9759 9.56517C85.2517 8.83154 82.1471 8.96746 80.886 9.83194ZM89.0648 9.48394C89.152 9.71246 90.1754 12.1447 91.3394 14.8893L93.4553 19.8789L92.4577 21.9395L91.4598 24L92.936 23.9036L94.4123 23.8069L97.5646 16.537L100.717 9.26711L99.7892 9.16596C99.2789 9.11001 98.7 9.12929 98.5029 9.20831C98.3058 9.28733 97.446 11.0024 96.5924 13.0193C95.7389 15.0362 94.9666 16.6884 94.8766 16.6909C94.7863 16.6931 94.0143 15.0239 93.1611 12.9811L91.6094 9.26711L90.2577 9.16786C89.2405 9.09326 88.9453 9.17133 89.0648 9.48394ZM104.352 9.55695C103.84 9.7899 103.046 10.3889 102.587 10.888C99.2078 14.5668 101.811 20.1719 106.9 20.1719C108.734 20.1719 109.862 19.7063 110.979 18.4882L111.709 17.6926L110.735 17.1799C109.813 16.6941 109.719 16.7014 108.955 17.3133C106.283 19.4538 102.556 16.2933 104.028 13.1347C104.882 11.3014 107.384 10.7091 108.955 11.9677C109.719 12.5796 109.813 12.5869 110.735 12.1011L111.709 11.5884L110.979 10.7928C110.578 10.3554 109.873 9.79749 109.412 9.55316C108.36 8.99591 105.582 8.99812 104.352 9.55695ZM113.819 14.6215V20.1719H115.061H116.302V16.6808C116.302 13.4217 116.352 13.1391 117.044 12.4346C117.451 12.0192 118.289 11.5834 118.906 11.4655C119.942 11.2676 120.027 11.1664 120.027 10.1385V9.02593L118.761 9.19883C118.065 9.29366 117.251 9.5971 116.952 9.8724C116.245 10.5248 115.943 10.5071 116.056 9.82025C116.127 9.38848 115.892 9.24561 114.983 9.16912L113.819 9.07082V14.6215ZM136.905 9.56327C134.926 10.4404 134.296 12.7725 135.624 14.3051C136.14 14.9003 136.971 15.2594 138.804 15.6779C140.69 16.109 141.311 16.3824 141.393 16.8196C141.453 17.1356 141.359 17.5402 141.184 17.7185C140.697 18.2148 137.598 18.075 136.522 17.5083C135.577 17.0108 135.56 17.0159 135.091 17.9407C134.829 18.4553 134.615 18.9389 134.615 19.0157C134.615 19.4607 137.397 20.1719 139.138 20.1719C142.308 20.1719 143.927 18.9809 143.927 16.6476C143.927 15.0732 142.998 14.3712 140.025 13.6973C137.536 13.1334 136.953 12.598 137.844 11.6921C138.443 11.0833 140.957 11.034 142.014 11.6102C142.582 11.9193 142.725 11.8454 143.141 11.0264C143.772 9.78327 143.787 9.8193 142.453 9.4419C140.845 8.98706 138.068 9.04774 136.905 9.56327ZM151.066 14.6405V20.1719H152.28H153.494L153.6 16.7197C153.695 13.5845 153.773 13.1928 154.452 12.4573C154.864 12.012 155.667 11.5584 156.237 11.4493C157.17 11.2711 157.274 11.1443 157.274 10.1803C157.274 9.22222 157.184 9.10906 156.42 9.11033C155.951 9.11096 155.113 9.39322 154.558 9.73775C153.552 10.3623 153.549 10.3623 153.549 9.73649C153.549 9.21527 153.339 9.10906 152.308 9.10906H151.066V14.6405ZM159.447 12.9122C159.447 17.2994 159.815 18.5672 161.368 19.5315C162.736 20.3809 165.15 20.3862 166.508 19.5432C167.514 18.9187 167.517 18.9187 167.517 19.5445C167.517 20.0657 167.727 20.1719 168.758 20.1719H170V14.6405V9.10906H168.758H167.517V12.122C167.517 16.5 166.755 17.9594 164.468 17.9594C163.963 17.9594 163.221 17.6878 162.818 17.356C162.133 16.7918 162.078 16.5019 161.981 12.9308L161.878 9.10906H160.662H159.447V12.9122ZM62.527 12.1292C63.8241 13.6303 63.5364 13.8503 60.2767 13.8503C57.1181 13.8503 56.858 13.6891 57.8779 12.3628C59.0577 10.8295 61.3062 10.7163 62.527 12.1292ZM129.052 12.2455C129.795 13.0019 129.96 13.4362 129.96 14.6405C129.96 16.6558 128.74 17.9594 126.856 17.9594C124.971 17.9594 123.752 16.6558 123.752 14.6405C123.752 12.6252 124.971 11.3216 126.856 11.3216C127.867 11.3216 128.341 11.5211 129.052 12.2455ZM74.3995 16.1978C74.3995 17.2586 73.0421 18.2754 71.6261 18.2754C70.3218 18.2754 69.7436 17.8238 69.7436 16.8057C69.7436 15.8226 70.5239 15.4516 72.6147 15.4402C74.2998 15.4313 74.3995 15.4734 74.3995 16.1978ZM146.376 16.9043C146.101 16.9792 145.712 17.4068 145.512 17.8547C145.009 18.9771 145.765 20.1719 146.976 20.1719C148.067 20.1719 148.583 19.6501 148.583 18.5463C148.583 17.7871 147.582 16.6103 147.039 16.7317C146.949 16.7519 146.651 16.8297 146.376 16.9043Z" fill="#1E1E1E"/>
</svg>
