<svg width="22" height="22" viewBox="0 0 22 22" fill="none" xmlns="http://www.w3.org/2000/svg">
<path d="M6.71695 11.0688C7.61339 12.9201 9.11031 14.4131 10.9638 15.3048C11.1005 15.3696 11.2518 15.3976 11.4026 15.3861C11.5535 15.3747 11.6987 15.3241 11.8241 15.2395L14.5464 13.421C14.6667 13.3394 14.8057 13.2896 14.9504 13.2763C15.0952 13.2629 15.2409 13.2865 15.374 13.3447L20.4703 15.5335C20.6445 15.606 20.79 15.7337 20.8844 15.8971C20.9789 16.0604 21.017 16.2502 20.993 16.4373C20.8315 17.698 20.2161 18.8567 19.2621 19.6965C18.308 20.5363 17.0806 20.9997 15.8096 21C11.8819 21 8.11498 19.4397 5.33764 16.6624C2.5603 13.885 1 10.1181 1 6.19038C1.00029 4.91936 1.46369 3.69199 2.30349 2.73794C3.1433 1.78389 4.30196 1.16853 5.56267 1.00701C5.74979 0.982972 5.93963 1.02111 6.10294 1.11556C6.26626 1.21001 6.394 1.35552 6.46649 1.5297L8.65527 6.63684C8.71219 6.76789 8.736 6.91093 8.7246 7.05336C8.71321 7.19578 8.66696 7.33321 8.58993 7.45355L6.7714 10.2195C6.69043 10.3446 6.64292 10.4883 6.63338 10.637C6.62385 10.7858 6.65262 10.9344 6.71695 11.0688V11.0688Z" stroke="#0089EE" stroke-width="2" stroke-linecap="round" stroke-linejoin="round"/>
</svg>
