<svg width="64" height="64" viewBox="0 0 64 64" fill="none" xmlns="http://www.w3.org/2000/svg">
<circle cx="18" cy="46" r="12" fill="#4B9754"/>
<g filter="url(#filter0_b_817_9422)">
<circle cx="33" cy="31" r="25" fill="#A0D8A7" fill-opacity="0.2"/>
</g>
<path d="M58 31C58 25.1736 55.9963 19.8062 52.642 15.5506C52.6031 15.4788 52.5518 15.4145 52.4906 15.3605C47.9048 9.65682 40.8713 6 33 6C25.1287 6 18.0955 9.65653 13.5094 15.3605C13.4484 15.4149 13.3972 15.4792 13.358 15.5509C10.0037 19.8063 8 25.1736 8 31C8 36.8273 10.004 42.1952 13.3591 46.4509C13.3979 46.521 13.4481 46.5842 13.5077 46.6378C18.0938 52.3426 25.1278 56 33 56C40.8722 56 47.9062 52.3426 52.492 46.6378C52.5513 46.5844 52.6014 46.5215 52.6401 46.4517C55.9957 42.196 58 36.8276 58 31ZM44.594 39.4588C44.4096 39.4207 44.2176 39.4574 44.0602 39.5608C43.9027 39.6642 43.7928 39.8258 43.7545 40.0102C43.6254 40.6349 43.4803 41.2561 43.3193 41.8733C40.1307 41.1267 36.629 40.7287 33.0119 40.7278H33C29.3787 40.7278 25.873 41.1259 22.6807 41.8733C22.5214 41.2622 22.3776 40.6471 22.2494 40.0287C22.2111 39.8442 22.1011 39.6825 21.9435 39.5791C21.786 39.4758 21.5939 39.4392 21.4094 39.4776C21.2249 39.5159 21.0632 39.6259 20.9598 39.7834C20.8565 39.941 20.8199 40.1331 20.8582 40.3176C20.9935 40.9688 21.1418 41.6043 21.3026 42.223C18.6222 42.9574 16.1986 43.948 14.1597 45.1636C11.3188 41.3938 9.58097 36.748 9.43125 31.7102H12.4983C12.6867 31.7102 12.8673 31.6354 13.0005 31.5022C13.1337 31.369 13.2085 31.1884 13.2085 31C13.2085 30.8116 13.1337 30.631 13.0005 30.4978C12.8673 30.3646 12.6867 30.2898 12.4983 30.2898H9.43097C9.58068 25.252 11.3185 20.606 14.1594 16.8364C16.198 18.0517 18.6219 19.0426 21.302 19.777C21.1383 20.4084 20.9902 21.0437 20.8577 21.6824C20.8387 21.7737 20.8379 21.8679 20.8553 21.9596C20.8728 22.0512 20.9081 22.1386 20.9593 22.2166C21.0104 22.2946 21.0765 22.3617 21.1536 22.4142C21.2307 22.4667 21.3175 22.5035 21.4088 22.5224C21.5002 22.5414 21.5943 22.5422 21.686 22.5248C21.7776 22.5073 21.865 22.472 21.943 22.4209C22.021 22.3697 22.0881 22.3036 22.1406 22.2265C22.1931 22.1494 22.2299 22.0627 22.2489 21.9713C22.3772 21.3529 22.521 20.7379 22.6801 20.1267C25.8724 20.8741 29.3781 21.2722 32.9994 21.2722H33.0114C36.6287 21.2713 40.1301 20.8733 43.319 20.1267C43.4708 20.7085 43.6084 21.2939 43.7318 21.8824C43.7503 21.9743 43.7869 22.0617 43.8393 22.1394C43.8917 22.2171 43.9591 22.2837 44.0374 22.3353C44.1157 22.3869 44.2034 22.4225 44.2955 22.44C44.3877 22.4575 44.4823 22.4565 44.5741 22.4373C44.6659 22.418 44.7529 22.3807 44.8302 22.3276C44.9075 22.2745 44.9735 22.2067 45.0244 22.1279C45.0754 22.0492 45.1102 21.9611 45.1269 21.8689C45.1436 21.7766 45.1419 21.6819 45.1219 21.5903C44.9943 20.9828 44.8526 20.3783 44.6969 19.7773C47.3773 19.0429 49.8011 18.052 51.8398 16.8366C54.681 20.6065 56.4185 25.2523 56.5682 30.2901H53.5014C53.3131 30.2901 53.1324 30.3649 52.9992 30.4981C52.866 30.6313 52.7912 30.8119 52.7912 31.0003C52.7912 31.1887 52.866 31.3693 52.9992 31.5025C53.1324 31.6357 53.3131 31.7105 53.5014 31.7105H56.5682C56.4185 36.7483 54.6807 41.3943 51.8395 45.1639C49.8009 43.9483 47.377 42.9577 44.6969 42.2233C44.8622 41.5856 45.0116 40.944 45.1449 40.2989C45.164 40.2075 45.1649 40.1133 45.1475 40.0217C45.1301 39.93 45.0948 39.8426 45.0437 39.7646C44.9925 39.6866 44.9265 39.6194 44.8493 39.5669C44.7721 39.5145 44.6854 39.4777 44.594 39.4588ZM32.3009 54.5347C28.5361 54.0551 25.0506 49.7386 23.0668 43.2389C25.9276 42.575 29.0568 42.2006 32.3009 42.1534V54.5347ZM33.7213 54.5321V42.154C36.9574 42.2026 40.0793 42.5767 42.9332 43.2392C40.9534 49.7267 37.4784 54.0386 33.7213 54.5321ZM33.7213 7.46818C37.4739 7.9625 40.9528 12.2767 42.9332 18.7611C40.079 19.4236 36.9574 19.7977 33.7213 19.8463V7.46818ZM32.3009 7.46534V19.8466C29.0568 19.7994 25.9276 19.425 23.0668 18.7611C25.0509 12.2611 28.5361 7.9446 32.3009 7.46534ZM50.9426 15.717C49.0438 16.8253 46.7977 17.7324 44.3151 18.4119C42.8929 13.694 40.7222 10.0696 38.1514 7.9875C43.2219 9.12159 47.681 11.8938 50.9426 15.717ZM27.8438 7.98835C25.2741 10.0705 23.1057 13.694 21.6847 18.4116C19.2023 17.7321 16.9563 16.8247 15.0577 15.7168C18.3179 11.8949 22.7753 9.1233 27.8438 7.98835ZM15.0574 46.283C16.956 45.175 19.202 44.2676 21.6844 43.5881C23.1054 48.306 25.2739 51.9295 27.8435 54.0114C22.7753 52.8767 18.3179 50.1051 15.0574 46.283ZM38.1571 54.0114C40.7264 51.9293 42.8943 48.306 44.3153 43.5881C46.7977 44.2676 49.044 45.175 50.9426 46.283C47.6824 50.1048 43.225 52.8764 38.1571 54.0114Z" fill="url(#paint0_linear_817_9422)"/>
<path d="M22.2142 30.8347C21.8631 30.64 21.3729 30.4602 20.7153 30.2852C20.0194 30.1001 19.6813 29.914 19.5202 29.7905C19.3407 29.6531 19.2608 29.4959 19.2608 29.2804C19.2608 29.0403 19.3531 28.8654 19.5601 28.7135C19.7955 28.541 20.1325 28.4534 20.5617 28.4534C20.9996 28.4534 21.3307 28.5558 21.5743 28.7668C21.8063 28.9675 21.9143 29.2205 21.9143 29.563C21.9143 29.6719 21.9588 29.7764 22.0379 29.8534C22.117 29.9304 22.2243 29.9737 22.3362 29.9737H22.9213C23.0332 29.9737 23.1405 29.9304 23.2196 29.8534C23.2987 29.7764 23.3432 29.6719 23.3432 29.563C23.3432 29.1102 23.2214 28.6921 22.9809 28.3198C22.741 27.9493 22.4012 27.6578 21.9717 27.4533C21.5549 27.2548 21.0804 27.1543 20.5617 27.1543C19.7975 27.1543 19.1534 27.3438 18.6471 27.718C18.1062 28.1183 17.832 28.648 17.832 29.2919C17.832 29.9468 18.1346 30.504 18.7056 30.9018C19.0763 31.1624 19.629 31.391 20.3952 31.6002C21.2061 31.8222 21.5565 32.0144 21.7076 32.1362C21.8775 32.2734 21.9565 32.4524 21.9565 32.6999C21.9565 32.9493 21.86 33.1289 21.644 33.282C21.3951 33.4586 21.0452 33.5478 20.6042 33.5478C20.1018 33.5478 19.703 33.4394 19.4186 33.2247C19.1598 33.0301 19.0395 32.7788 19.0395 32.4333C19.0395 32.3243 18.995 32.2199 18.9159 32.1429C18.8368 32.0659 18.7295 32.0226 18.6176 32.0226H18.037C17.9251 32.0226 17.8178 32.0659 17.7387 32.1429C17.6596 32.2199 17.6151 32.3243 17.6151 32.4333C17.6151 32.9069 17.7448 33.3345 18.0005 33.705C18.2547 34.0735 18.6266 34.3612 19.105 34.5608C19.5601 34.7505 20.0644 34.8466 20.6042 34.8466C21.403 34.8466 22.064 34.658 22.5694 34.2859C23.1108 33.887 23.3854 33.3504 23.3854 32.6906C23.3854 32.2791 23.2821 31.9128 23.0785 31.6018C22.8813 31.3012 22.5902 31.043 22.2142 30.8347ZM32.3393 27.2463H31.745C31.6507 27.2463 31.5592 27.277 31.4849 27.3336C31.4107 27.3902 31.3581 27.4693 31.3355 27.5584L30.2436 31.8556L28.9551 27.5425C28.9296 27.4572 28.8763 27.3822 28.8033 27.3288C28.7302 27.2754 28.6414 27.2466 28.55 27.2466H28.0266C27.8396 27.2466 27.6747 27.3665 27.6221 27.5411L26.3198 31.8444L25.2178 27.5573C25.195 27.4685 25.1423 27.3896 25.0682 27.3333C24.994 27.2769 24.9027 27.2463 24.8086 27.2463H24.2137C24.1494 27.2464 24.086 27.2607 24.0282 27.2883C23.9705 27.3158 23.92 27.3558 23.8805 27.4053C23.8411 27.4547 23.8138 27.5122 23.8006 27.5735C23.7875 27.6348 23.7889 27.6981 23.8047 27.7588L25.5604 34.4466C25.5837 34.535 25.6364 34.6132 25.7104 34.6692C25.7844 34.7251 25.8754 34.7554 25.9691 34.7554H26.5257C26.6167 34.7554 26.7052 34.7268 26.7781 34.6739C26.851 34.621 26.9043 34.5465 26.9302 34.4617L28.2901 30.0005L29.6172 34.4592C29.6426 34.5447 29.6958 34.6198 29.7689 34.6732C29.8419 34.7267 29.9308 34.7557 30.0222 34.7557H30.5794C30.6731 34.7557 30.7641 34.7253 30.8381 34.6694C30.9121 34.6135 30.9649 34.5352 30.9881 34.4469L32.7483 27.7591C32.7643 27.6984 32.7658 27.6349 32.7527 27.5736C32.7397 27.5122 32.7124 27.4546 32.6729 27.4051C32.6334 27.3556 32.5828 27.3156 32.525 27.2881C32.4672 27.2605 32.4037 27.2462 32.3393 27.2463ZM34.7453 27.2463H34.165C34.0531 27.2463 33.9458 27.2896 33.8667 27.3666C33.7876 27.4436 33.7431 27.548 33.7431 27.657V34.3448C33.7431 34.4537 33.7876 34.5581 33.8667 34.6352C33.9458 34.7122 34.0531 34.7554 34.165 34.7554H34.7453C34.8572 34.7554 34.9645 34.7122 35.0436 34.6352C35.1227 34.5581 35.1672 34.4537 35.1672 34.3448V27.657C35.1672 27.548 35.1227 27.4436 35.0436 27.3666C34.9645 27.2896 34.8572 27.2463 34.7453 27.2463ZM41.446 27.2463H37.1895C37.0776 27.2463 36.9703 27.2896 36.8912 27.3666C36.8121 27.4436 36.7676 27.548 36.7676 27.657V34.3448C36.7676 34.4537 36.8121 34.5581 36.8912 34.6352C36.9703 34.7122 37.0776 34.7554 37.1895 34.7554H37.7698C37.8817 34.7554 37.989 34.7122 38.0681 34.6352C38.1472 34.5581 38.1917 34.4537 38.1917 34.3448V31.6275H40.9743C41.0862 31.6275 41.1935 31.5843 41.2726 31.5073C41.3517 31.4302 41.3962 31.3258 41.3962 31.2169V30.7391C41.3962 30.6302 41.3517 30.5258 41.2726 30.4487C41.1935 30.3717 41.0862 30.3285 40.9743 30.3285H38.1917V28.5454H41.446C41.5579 28.5454 41.6652 28.5021 41.7443 28.4251C41.8234 28.3481 41.8679 28.2436 41.8679 28.1347V27.657C41.8679 27.548 41.8234 27.4436 41.7443 27.3666C41.6652 27.2896 41.5579 27.2463 41.446 27.2463ZM47.9624 27.2463H42.6771C42.5652 27.2463 42.4579 27.2896 42.3788 27.3666C42.2996 27.4436 42.2552 27.548 42.2552 27.657V28.1347C42.2552 28.2436 42.2996 28.3481 42.3788 28.4251C42.4579 28.5021 42.5652 28.5454 42.6771 28.5454H44.6052V34.3448C44.6052 34.4537 44.6497 34.5581 44.7288 34.6352C44.8079 34.7122 44.9152 34.7554 45.0271 34.7554H45.6074C45.7193 34.7554 45.8266 34.7122 45.9057 34.6352C45.9848 34.5581 46.0293 34.4537 46.0293 34.3448V28.5454H47.9624C48.0743 28.5454 48.1816 28.5021 48.2608 28.4251C48.3399 28.3481 48.3843 28.2436 48.3843 28.1347V27.657C48.3843 27.548 48.3399 27.4436 48.2608 27.3666C48.1816 27.2896 48.0743 27.2463 47.9624 27.2463Z" fill="#4B9754"/>
<defs>
<filter id="filter0_b_817_9422" x="0" y="-2" width="66" height="66" filterUnits="userSpaceOnUse" color-interpolation-filters="sRGB">
<feFlood flood-opacity="0" result="BackgroundImageFix"/>
<feGaussianBlur in="BackgroundImageFix" stdDeviation="4"/>
<feComposite in2="SourceAlpha" operator="in" result="effect1_backgroundBlur_817_9422"/>
<feBlend mode="normal" in="SourceGraphic" in2="effect1_backgroundBlur_817_9422" result="shape"/>
</filter>
<linearGradient id="paint0_linear_817_9422" x1="58" y1="7.5625" x2="15.2917" y2="49.2292" gradientUnits="userSpaceOnUse">
<stop offset="0.351015" stop-color="#4B9754"/>
<stop offset="1" stop-color="#4B9754" stop-opacity="0"/>
</linearGradient>
</defs>
</svg>
