<svg width="64" height="64" viewBox="0 0 64 64" fill="none" xmlns="http://www.w3.org/2000/svg">
<mask id="mask0_817_9457" style="mask-type:luminance" maskUnits="userSpaceOnUse" x="4" y="4" width="56" height="56">
<path d="M60 4H4V60H60V4Z" fill="white"/>
</mask>
<g mask="url(#mask0_817_9457)">
<rect x="5" y="26" width="32" height="32" fill="#4B9754"/>
<g filter="url(#filter0_b_817_9457)">
<path d="M58 5H10V53H58V5Z" fill="#A0D8A7" fill-opacity="0.1"/>
</g>
<path d="M40 12V13.7952H44.6931V21H47.3164V13.7952H52V12H40Z" fill="#4B9754"/>
<path d="M25.6117 12L22.5 17.9522L19.3969 12H16V21H18.3856V14.5612L21.4195 20.0026H23.5891L26.623 14.5612V21H29V12H25.6117Z" fill="#4B9754"/>
<path d="M49.3747 44.9363C49.3079 45.2801 49.1361 45.5628 48.8592 45.7767C48.6014 45.9753 48.2482 46.1205 47.8091 46.2046C47.3795 46.281 46.7399 46.3268 46.0717 46.3268C45.3747 46.3268 44.7637 46.258 44.2387 46.1129C43.7327 45.9753 43.3317 45.7309 43.0549 45.3947C42.7685 45.0585 42.6253 44.5696 42.6253 43.9355V43.0569C42.6253 42.4304 42.7685 41.9414 43.0549 41.5976C43.3413 41.2614 43.7327 41.017 44.2387 40.8795C44.7542 40.7343 45.3747 40.6656 46.0717 40.6656C46.7399 40.6656 47.3795 40.7114 47.8091 40.7878C48.2482 40.8719 48.6014 41.0093 48.8592 41.2156C49.1361 41.4295 49.3079 41.7122 49.3747 42.056H52C51.9236 41.3455 51.6278 40.742 51.1027 40.253C50.6254 39.8099 49.9571 39.489 49.1265 39.2903C48.3246 39.0993 47.2649 39 46.0717 39C44.8115 39 43.7231 39.1452 42.8257 39.4279C41.9189 39.7182 41.2124 40.1995 40.7256 40.8642C40.2578 41.4983 40.0191 42.354 40 43.393V43.4924L40.1432 43.5L40 43.5076V43.5153V43.607C40.0191 44.646 40.2578 45.5017 40.7256 46.1358C41.2124 46.8005 41.9189 47.2818 42.8257 47.5722C43.7231 47.8548 44.8115 48 46.0717 48C47.2649 48 48.3246 47.9007 49.1265 47.7097C49.9571 47.511 50.6158 47.1901 51.1027 46.747C51.6278 46.2657 51.9332 45.6545 52 44.9439H49.3747V44.9363Z" fill="#4B9754"/>
</g>
<defs>
<filter id="filter0_b_817_9457" x="-2" y="-7" width="72" height="72" filterUnits="userSpaceOnUse" color-interpolation-filters="sRGB">
<feFlood flood-opacity="0" result="BackgroundImageFix"/>
<feGaussianBlur in="BackgroundImageFix" stdDeviation="6"/>
<feComposite in2="SourceAlpha" operator="in" result="effect1_backgroundBlur_817_9457"/>
<feBlend mode="normal" in="SourceGraphic" in2="effect1_backgroundBlur_817_9457" result="shape"/>
</filter>
</defs>
</svg>
