<svg width="64" height="64" viewBox="0 0 64 64" fill="none" xmlns="http://www.w3.org/2000/svg">
<path fill-rule="evenodd" clip-rule="evenodd" d="M40.0645 47.7014C43.765 47.7014 47.7797 48.9579 52.2246 52.8577C52.67 53.248 53.2628 52.7628 52.8735 52.2775C48.5064 46.8163 44.4671 45.7766 40.4388 44.8983C35.5102 43.822 32.9763 41.0758 31.21 38.0612C30.859 37.4621 30.7005 37.5678 30.6691 38.3391C30.6295 39.2811 30.6964 40.5295 30.9095 41.7576C30.7101 41.7657 30.5106 41.7644 30.3085 41.7644C23.2599 41.7644 17.5445 36.1039 17.5445 29.1218C17.5445 22.1411 23.2599 16.4819 30.3098 16.4819C37.3584 16.4819 43.0738 22.1411 43.0738 29.1218C43.0738 29.6193 43.0492 30.1113 42.9918 30.5925C42.0602 30.4258 40.2257 30.4068 38.9389 30.5166C38.4553 30.5586 38.5236 30.7823 38.8897 30.8473C43.1093 31.6023 46.0066 34.1927 46.6705 38.8921C46.6841 39.0006 46.8289 39.0317 46.8849 38.9382C48.6791 35.9738 49.6242 32.5798 49.6183 29.1218C49.6183 18.5626 40.9729 10 30.3098 10C19.6454 10 11 18.5612 11 29.1218C11 39.6837 19.6454 48.2463 30.3098 48.2463C33.1375 48.2463 35.946 47.7014 40.0645 47.7014ZM41.5015 40.7586C42.3607 41.477 42.6216 42.3323 42.1681 42.9355C41.9154 43.2663 41.5056 43.4492 41.0138 43.4492C40.5341 43.4494 40.0696 43.2824 39.7011 42.9775C38.9198 42.3012 38.6903 41.2059 39.1998 40.5838C39.3992 40.3398 39.723 40.2056 40.1109 40.2056C40.5822 40.2056 41.0767 40.4021 41.5015 40.7586ZM45.4657 38.9314C45.5913 39.7691 45.325 40.1161 45.0559 40.1161C44.7622 40.1161 44.3947 39.7772 43.9617 39.1063C43.5328 38.4448 43.3757 37.6857 43.5888 37.3021C43.7281 37.0487 44.0218 36.9375 44.392 37.0771C45.1091 37.3442 45.3892 38.4313 45.4657 38.9314Z" fill="#4B9754"/>
<g filter="url(#filter0_b_817_9447)">
<circle cx="16" cy="48" r="16" fill="#A0D8A7" fill-opacity="0.1"/>
</g>
<defs>
<filter id="filter0_b_817_9447" x="-12" y="20" width="56" height="56" filterUnits="userSpaceOnUse" color-interpolation-filters="sRGB">
<feFlood flood-opacity="0" result="BackgroundImageFix"/>
<feGaussianBlur in="BackgroundImageFix" stdDeviation="6"/>
<feComposite in2="SourceAlpha" operator="in" result="effect1_backgroundBlur_817_9447"/>
<feBlend mode="normal" in="SourceGraphic" in2="effect1_backgroundBlur_817_9447" result="shape"/>
</filter>
</defs>
</svg>
