<svg width="64" height="64" viewBox="0 0 64 64" fill="none" xmlns="http://www.w3.org/2000/svg">
<mask id="mask0_817_10965" style="mask-type:luminance" maskUnits="userSpaceOnUse" x="2" y="2" width="60" height="60">
<path d="M2 2H62V62H2V2Z" fill="white"/>
</mask>
<g mask="url(#mask0_817_10965)">
<rect x="34" y="2" width="28" height="28" rx="4" fill="#1E4165"/>
<g filter="url(#filter0_b_817_10965)">
<rect x="5" y="7" width="52" height="52" rx="12" fill="#A0D8A7" fill-opacity="0.1"/>
</g>
<path fill-rule="evenodd" clip-rule="evenodd" d="M21.3024 42H42.7577V39.6573H21.3024V42ZM31.9677 18L34.8167 20.6221L31.9677 23.1891L29.181 20.6221L31.9677 18ZM47 29.2735C43.1813 26.2027 38.2106 24.2516 32.6972 24.0833V38.6531C32.6972 38.6531 36.8172 38.597 37.9081 38.6531C38.8189 38.6531 39.1202 37.87 39.1202 37.87L42.9389 29.3868C43.3014 29.6112 43.665 29.8345 43.9698 30.0577L40.091 38.6531H42.8188L46.9989 29.2757V29.2724L47 29.2735ZM36.576 36.5271C36.2735 36.5821 35.2426 36.5271 35.2426 36.5271V26.6504C37.1831 26.9297 39.0001 27.4896 40.7594 28.2694L37.1831 36.1949C36.9407 36.5876 36.576 36.5304 36.576 36.5304V36.5282V36.5271ZM17 29.2724C20.8175 26.2038 25.8483 24.2516 31.3028 24.0833V38.6531C31.3028 38.6531 27.1816 38.597 26.0907 38.6531C25.1811 38.6531 24.8786 37.87 24.8786 37.87L21.0611 29.3868C20.6975 29.6112 20.3316 29.8345 20.0302 30.0577L23.969 38.6531H21.1812L17 29.2757V29.2724ZM27.424 36.5282C27.7265 36.5832 28.7574 36.5282 28.7574 36.5282V26.6504C26.8667 26.9249 25.0285 27.4705 23.3029 28.2694L26.8191 36.1949C27.0638 36.5876 27.424 36.5304 27.424 36.5304V36.5282Z" fill="#1E4165"/>
</g>
<defs>
<filter id="filter0_b_817_10965" x="-7" y="-5" width="76" height="76" filterUnits="userSpaceOnUse" color-interpolation-filters="sRGB">
<feFlood flood-opacity="0" result="BackgroundImageFix"/>
<feGaussianBlur in="BackgroundImageFix" stdDeviation="6"/>
<feComposite in2="SourceAlpha" operator="in" result="effect1_backgroundBlur_817_10965"/>
<feBlend mode="normal" in="SourceGraphic" in2="effect1_backgroundBlur_817_10965" result="shape"/>
</filter>
</defs>
</svg>
