<svg width="40" height="40" viewBox="0 0 40 40" fill="none" xmlns="http://www.w3.org/2000/svg">
<path fill-rule="evenodd" clip-rule="evenodd" d="M11.164 19.6068C15.7264 17.778 18.7637 16.5628 20.2889 15.9732C24.6298 14.3008 25.5422 14.012 26.1289 14C26.2592 14 26.546 14.0241 26.7415 14.1684C26.898 14.2888 26.9371 14.4452 26.9631 14.5655C26.9892 14.6858 27.0153 14.9385 26.9892 15.131C26.7546 17.417 25.7378 22.9636 25.2164 25.5144C24.9948 26.5972 24.5646 26.9582 24.1474 26.9943C23.2349 27.0665 22.5441 26.4408 21.6707 25.9114C20.2889 25.0812 19.5198 24.5639 18.1771 23.7457C16.6259 22.8072 17.6296 22.2899 18.5161 21.4477C18.7507 21.2311 22.7526 17.8622 22.8308 17.5614C22.8439 17.5253 22.8439 17.3809 22.7526 17.3087C22.6614 17.2365 22.531 17.2606 22.4267 17.2847C22.2833 17.3087 20.0934 18.6563 15.8307 21.3153C15.205 21.7123 14.6445 21.9049 14.1361 21.8928C13.5756 21.8808 12.5066 21.6041 11.6984 21.3634C10.7208 21.0747 9.93862 20.9183 10.0038 20.4129C10.0429 20.1482 10.434 19.8835 11.164 19.6068Z" fill="white"/>
<rect x="0.75" y="0.75" width="38.5" height="38.5" rx="19.25" stroke="white" stroke-opacity="0.2" stroke-width="1.5"/>
</svg>
