<svg width="64" height="64" viewBox="0 0 64 64" fill="none" xmlns="http://www.w3.org/2000/svg">
<circle cx="32" cy="32" r="27" fill="#0089EE"/>
<path fill-rule="evenodd" clip-rule="evenodd" d="M20.0405 31.2094C26.0791 28.6744 30.0991 26.9899 32.1177 26.1727C37.8629 23.8544 39.0706 23.4542 39.847 23.4375C40.0195 23.4375 40.3991 23.4709 40.6579 23.671C40.8649 23.8378 40.9167 24.0546 40.9512 24.2214C40.9857 24.3881 41.0202 24.7384 40.9857 25.0052C40.6752 28.174 39.3294 35.8625 38.6393 39.3983C38.346 40.8993 37.7766 41.3996 37.2246 41.4496C36.0168 41.5497 35.1024 40.6825 33.9465 39.9486C32.1177 38.7979 31.0997 38.0807 29.3227 36.9466C27.2696 35.6457 28.598 34.9286 29.7712 33.7611C30.0818 33.4609 35.3785 28.7911 35.482 28.3742C35.4992 28.3241 35.4992 28.124 35.3785 28.0239C35.2577 27.9239 35.0852 27.9572 34.9472 27.9906C34.7574 28.0239 31.8589 29.8919 26.2171 33.5777C25.389 34.128 24.6471 34.3949 23.9742 34.3782C23.2324 34.3615 21.8176 33.9779 20.7479 33.6444C19.4539 33.2441 18.4188 33.0273 18.505 32.3268C18.5568 31.9599 19.0744 31.593 20.0405 31.2094Z" fill="white"/>
</svg>
