<svg width="32" height="32" viewBox="0 0 32 32" fill="none" xmlns="http://www.w3.org/2000/svg">
<path d="M11.7169 16.0688C12.6134 17.9201 14.1103 19.4131 15.9638 20.3048C16.1005 20.3696 16.2518 20.3976 16.4026 20.3861C16.5535 20.3747 16.6987 20.3241 16.8241 20.2395L19.5464 18.421C19.6667 18.3394 19.8057 18.2896 19.9504 18.2763C20.0952 18.2629 20.2409 18.2865 20.374 18.3447L25.4703 20.5335C25.6445 20.606 25.79 20.7337 25.8844 20.8971C25.9789 21.0604 26.017 21.2502 25.993 21.4373C25.8315 22.698 25.2161 23.8567 24.2621 24.6965C23.308 25.5363 22.0806 25.9997 20.8096 26C16.8819 26 13.115 24.4397 10.3376 21.6624C7.5603 18.885 6 15.1181 6 11.1904C6.00029 9.91936 6.46369 8.692 7.30349 7.73795C8.1433 6.7839 9.30196 6.16854 10.5627 6.00701C10.7498 5.98298 10.9396 6.02112 11.1029 6.11557C11.2663 6.21001 11.394 6.35553 11.4665 6.5297L13.6553 11.6368C13.7122 11.7679 13.736 11.9109 13.7246 12.0534C13.7132 12.1958 13.667 12.3332 13.5899 12.4536L11.7714 15.2195C11.6904 15.3446 11.6429 15.4883 11.6334 15.6371C11.6239 15.7858 11.6526 15.9344 11.7169 16.0688V16.0688Z" stroke="white" stroke-width="2" stroke-linecap="round" stroke-linejoin="round"/>
</svg>
