<svg width="1248" height="699" viewBox="0 0 1248 699" fill="none" xmlns="http://www.w3.org/2000/svg">
<g clip-path="url(#clip0_817_2023)">
<mask id="mask0_817_2023" style="mask-type:alpha" maskUnits="userSpaceOnUse" x="-196" y="-446" width="1806" height="1836">
<path d="M-188.084 145.6L968.929 -443.929C975.51 -447.282 983.563 -444.665 986.916 -438.084L1607.93 780.72C1611.28 787.301 1608.67 795.354 1602.08 798.707L445.071 1388.24C438.49 1391.59 430.437 1388.97 427.084 1382.39L-193.929 163.587C-197.282 157.006 -194.665 148.953 -188.084 145.6Z" fill="#8FB9D0" fill-opacity="0.6"/>
</mask>
<g mask="url(#mask0_817_2023)">
<path d="M-757.988 1677.77C-940.827 1470.41 -1071.07 1211.57 -1135.43 929.107C-1198.05 654.964 -1191.32 373.314 -1117.02 135.367C-1055.69 -62.3878 -940.721 -254.626 -764.994 -451.883C-608.433 -627.495 -419.894 -790.99 -237.243 -949.054C-199.585 -981.806 -160.341 -1015.53 -122.394 -1049.05C-82.3262 -1084.02 -41.9703 -1119.75 -2.95282 -1154.26C362.372 -1477.34 707.397 -1782.7 1141.31 -1870.83C1381.14 -1919.63 1645.87 -1902.24 1886.16 -1822.18C2136.37 -1738.89 2333.31 -1593.58 2440.72 -1413.75C2515.31 -1288.85 2556.27 -1135.41 2569.94 -931.529C2581.93 -749.884 2570.77 -550.358 2558.88 -338.753C2549.49 -170.081 2539.6 4.49707 2540.91 182.62C2542.12 343.988 2552.45 509.331 2562.5 668.997C2591.71 1132.49 2619.38 1570.15 2426.74 1867.23C2392.65 1919.96 2350.46 1969.28 2301.2 2014.71C2260.25 2052.49 2213.99 2087.72 2162.93 2120.45C2057.93 2187.08 1932.03 2241.78 1788.88 2283.16C1522.41 2360.01 1204.52 2389.17 869.091 2367.64C543.419 2347.01 227.975 2277.31 -43.0554 2167.16C-336.888 2047.31 -577.62 1882.45 -757.988 1677.77ZM-39.9442 2160.32C230.325 2270.2 545.007 2339.6 869.649 2360.19C1204.29 2381.95 1521.4 2353.01 1786.85 2276.11C1929.21 2234.96 2054.34 2180.49 2158.8 2114.36C2270.14 2043.87 2358.08 1959.28 2420.44 1863.62C2611.73 1568.29 2584.01 1131.66 2555.01 669.467C2544.71 509.535 2534.39 344.191 2533.44 182.576C2532.13 4.453 2542.02 -170.125 2551.43 -339.311C2563.3 -550.403 2574.7 -749.658 2562.45 -931.059C2548.98 -1133.64 2508.23 -1285.78 2434.38 -1409.88C2327.96 -1588.64 2132.25 -1732.61 1883.83 -1815.58C1644.81 -1895.33 1381.63 -1912.66 1142.83 -1863.8C710.728 -1775.86 366.507 -1471.25 1.9848 -1148.9C-37.0325 -1114.4 -77.3886 -1078.66 -117.456 -1043.69C-155.65 -1010.44 -194.647 -976.458 -232.306 -943.701C-323.641 -864.411 -416.563 -784.156 -506.232 -701.447C-595.366 -619.236 -681.495 -534.84 -759.519 -447.024C-934.445 -250.507 -1049.13 -59.0302 -1110.15 137.449C-1183.86 373.874 -1190.56 654.494 -1128.39 927.074C-1064.24 1208.24 -934.462 1466.03 -752.612 1672.32C-572.758 1876.98 -333.015 2040.77 -39.9442 2160.32Z" fill="url(#paint0_linear_817_2023)" fill-opacity="0.4"/>
<path d="M-1019.2 935.351C-1077.63 678.638 -1071.62 414.999 -1001.82 192.589C-944.611 7.55298 -836.587 -172.338 -672.18 -357.168C-525.608 -521.587 -349.093 -674.491 -178.446 -822.472C-143.196 -853.003 -106.609 -884.766 -70.8239 -915.794C-33.1652 -948.546 4.26721 -982.083 40.876 -1014.36C382.688 -1316.75 705.27 -1602.39 1111.64 -1684.94C1336.4 -1730.75 1583.66 -1714.57 1808.68 -1639.26C2042.86 -1560.99 2227.29 -1424.95 2327.69 -1256.48C2397.19 -1139.77 2435.73 -996.481 2448.12 -805.797C2459.3 -635.782 2448.91 -448.853 2437.57 -251.141C2428.62 -93.2747 2419.44 70.251 2420.71 236.519C2421.83 387.575 2431.56 542.072 2440.97 691.92C2468.3 1125.44 2494.27 1534.94 2313.72 1813.44C2281.57 1862.91 2242.34 1909 2196.3 1951.46C2157.76 1987.01 2114.69 2019.8 2066.82 2050.08C1968.7 2112.35 1850.92 2163.51 1716.89 2202.42C1467.63 2274.3 1169.91 2301.71 856.345 2281.31C551.502 2261.78 256.474 2197.03 2.68982 2093.75C-272.642 1981.61 -497.839 1827.69 -666.87 1635.84C-837.095 1441.61 -959.263 1199.59 -1019.2 935.351ZM6.04736 2087.19C259.071 2190.18 553.336 2254.64 857.151 2274.13C1170.2 2294.5 1466.89 2267.06 1715.37 2195.41C1848.62 2156.72 1965.86 2106.05 2063.46 2043.76C2167.66 1977.88 2249.72 1898.73 2308.23 1809.09C2487.16 1532.6 2461.38 1124.39 2434.01 691.892C2424.6 542.049 2414.86 387.552 2413.51 236.227C2412.25 69.4453 2421.43 -94.0804 2430.39 -251.946C2441.46 -449.412 2452.09 -636.07 2440.65 -805.841C2428.44 -994.713 2390.13 -1137.22 2321.12 -1253.4C2221.44 -1420.55 2038.76 -1555.23 1806.11 -1632.92C1582.6 -1707.66 1336.11 -1723.54 1112.92 -1678.19C708.623 -1596.07 386.575 -1310.92 45.5668 -1009.28C8.95789 -976.994 -28.7214 -943.728 -66.1327 -910.706C-101.671 -879.412 -138.505 -847.92 -173.755 -817.389C-259.202 -743.531 -346.255 -668.187 -430.037 -590.913C-513.552 -513.884 -594.057 -434.672 -666.931 -353.091C-830.78 -169.27 -938.003 9.88098 -995.176 193.888C-1064.15 415.043 -1070.37 677.389 -1012.14 932.798C-952.158 1196.01 -830.465 1436.98 -660.716 1630.16C-492.712 1821.97 -268.255 1975.09 6.04736 2087.19Z" fill="url(#paint1_linear_817_2023)" fill-opacity="0.4"/>
<path d="M-903.218 941.323C-957.727 702.296 -951.932 456.684 -887.383 249.525C-768.265 -134.79 -438.748 -419.895 -120.432 -695.662C-87.5917 -723.966 -53.413 -753.514 -20.2842 -782.581C14.4509 -813.134 49.7213 -844.179 83.9209 -874.235C402.219 -1155.93 702.872 -1421.84 1081.19 -1498.82C1290.61 -1541.38 1520.91 -1526.41 1730.44 -1456.62C1948.6 -1383.89 2120.52 -1257.12 2213.9 -1100.02C2278.82 -990.967 2314.66 -857.577 2326.55 -679.8C2336.91 -521.41 2327.31 -347.593 2317.03 -163.238C2308.76 -15.9103 2300.3 136.048 2301.51 290.974C2302.53 431.719 2311.65 575.885 2320.47 714.882C2346.16 1118.7 2369.93 1500.03 2202 1759.45C2172.05 1805.4 2135.52 1848.5 2092.69 1888.01C2056.82 1921.08 2016.68 1951.68 1971.98 1980.03C1880.47 2038.18 1770.83 2085.8 1645.94 2121.73C1413.62 2188.88 1136.6 2214.03 844.355 2195.27C560.591 2177.1 285.486 2116.77 49.4613 2020.39C-206.855 1915.98 -416.762 1772.72 -573.946 1593.72C-733.391 1413.33 -846.935 1187.64 -903.218 941.323ZM51.7899 2013.79C287.321 2109.63 561.396 2169.92 844.4 2187.79C1135.86 2206.78 1412.11 2181.35 1643.65 2114.42C1767.76 2078.72 1876.89 2031.07 1967.87 1973.41C2064.67 1911.87 2141.6 1838.44 2195.47 1755.06C2362.03 1497.9 2337.97 1117.34 2312.48 714.816C2303.69 575.304 2294.81 431.407 2293.55 290.395C2292.6 135.222 2300.81 -17.0049 2309.08 -164.332C2330.59 -537.385 2348.77 -859.804 2207.58 -1096.67C2114.92 -1252.45 1944.48 -1377.62 1728.1 -1450.01C1519.86 -1519.5 1290.59 -1534.43 1082.47 -1492.07C706.225 -1415.52 406.354 -1149.84 88.8586 -868.881C54.6591 -838.825 19.6356 -807.515 -15.3459 -777.227C-48.4749 -748.16 -82.654 -718.613 -115.495 -690.308C-195.074 -621.365 -275.991 -551.189 -354.151 -479.099C-432.043 -407.255 -506.911 -333.742 -574.681 -257.366C-727.203 -85.9718 -826.951 80.3381 -880.262 251.874C-944.501 457.758 -950.258 702.34 -896.196 939.804C-840.371 1184.55 -727.297 1409.2 -568.857 1589.03C-412.149 1766.98 -203.251 1909.68 51.7899 2013.79Z" fill="url(#paint2_linear_817_2023)" fill-opacity="0.4"/>
<path d="M-786.989 947.566C-837.576 726.219 -831.99 498.64 -772.188 306.75C-661.948 -49.061 -356.975 -313.511 -61.6365 -569.073C-31.1844 -595.675 0.317902 -622.749 31.0376 -649.595C63.3636 -677.927 95.9572 -706.502 127.501 -734.608C422.285 -995.603 700.761 -1242.06 1051.27 -1313.19C1245.12 -1352.78 1458.69 -1338.74 1652.7 -1273.95C1854.84 -1206.26 2014 -1089.02 2100.64 -943.53C2232.42 -722.768 2215.41 -422.722 2196.24 -75.6023C2188.67 60.6726 2180.67 201.311 2181.83 344.896C2182.74 475.33 2191.27 608.647 2199.21 737.556C2222.75 1111.66 2245.07 1465.09 2089.51 1705.17C2062.04 1747.35 2028.49 1786.71 1988.88 1823.25C1887.16 1917.07 1746.56 1991.28 1574.46 2041.02C1359.35 2103.2 1102.51 2126.58 831.858 2109.2C568.898 2092.66 314.251 2036.24 95.4506 1947.26C-142.097 1850.3 -336.448 1717.47 -482.065 1552.07C-629.93 1384.78 -735.126 1175.66 -786.989 947.566ZM98.0469 1940.41C316.085 2029.1 569.724 2084.96 832.167 2101.49C1102.04 2119.09 1357.85 2095.66 1572.18 2033.71C1809.71 1965.22 1986.25 1849.95 2083.24 1701.05C2237.43 1462.72 2215.32 1110.59 2191.98 737.783C2183.8 608.603 2175.27 475.285 2174.35 344.852C2173.46 201.02 2181.22 60.114 2188.78 -76.1608C2208.16 -421.984 2225.14 -721 2094.32 -940.176C2008.4 -1084.35 1850.74 -1200.5 1650.37 -1267.35C1457.64 -1331.83 1245.34 -1345.55 1052.55 -1306.44C703.849 -1235.49 426.173 -989.779 132.191 -729.52C100.648 -701.419 68.0544 -672.839 35.7284 -644.512C5.00858 -617.663 -26.7611 -590.342 -56.9458 -563.987C-130.389 -500.21 -204.615 -436.206 -276.083 -370.287C-491.021 -172.037 -682.915 42.606 -765.292 308.316C-824.785 498.932 -830.062 725.236 -779.95 945.528C-728.292 1172.33 -623.3 1380.16 -476.961 1546.87C-332.103 1711.97 -138.492 1844.01 98.0469 1940.41Z" fill="url(#paint3_linear_817_2023)" fill-opacity="0.4"/>
<path d="M-671.031 954.053C-717.424 750.143 -712.567 540.569 -657.251 364.22C-555.879 36.399 -274.953 -206.861 -3.37549 -441.994C24.6677 -466.373 53.5139 -491.493 81.8246 -516.119C111.742 -542.227 141.679 -568.849 170.546 -594.484C441.817 -834.781 698.098 -1061.26 1020.82 -1127.07C1199.32 -1163.42 1395.95 -1150.58 1574.44 -1090.8C1760.56 -1028.65 1907.21 -920.678 1986.84 -786.548C2108.23 -582.958 2092.71 -307.075 2074.66 12.2583C2067.53 137.728 2060.23 267.313 2061.33 399.557C2062.42 519.43 2070.09 642.146 2077.41 760.728C2099.32 1105.13 2119.69 1430.14 1976.5 1651.38C1951.22 1690.05 1920.38 1726.42 1883.97 1760C1790.29 1846.41 1661 1914.64 1502.21 1960.53C1304.3 2017.74 1067.64 2039.36 818.841 2023.13C576.711 2007.68 342.481 1956.21 140.926 1874.11C-77.8743 1785.13 -256.669 1662.71 -390.705 1510.41C-526.204 1355.98 -623.317 1163.69 -671.031 954.053ZM144.036 1867.28C344.829 1949.09 578.299 2000.26 819.399 2015.67C1067.68 2031.89 1303.32 2010.22 1500.44 1953.25C1718.95 1889.92 1881.46 1784.13 1970.48 1647.02C2112.57 1427.79 2092.16 1103.81 2070.45 760.706C2062.88 641.859 2055.22 519.143 2054.4 399.02C2053.3 266.775 2060.86 136.943 2067.99 11.4736C2086 -306.83 2101.24 -581.953 1981.03 -783.178C1902.11 -915.468 1756.96 -1022.35 1572.63 -1084.17C1395.14 -1143.4 1200.06 -1156.17 1022.86 -1120.04C702.214 -1054.65 446.466 -828.67 175.999 -589.109C147.132 -563.475 117.194 -536.852 87.2769 -510.745C58.9661 -486.119 29.8523 -460.752 1.80914 -436.372C-66.0133 -377.779 -133.856 -318.672 -199.703 -257.938C-397.513 -75.4883 -574.023 121.995 -649.616 366.59C-704.374 541.934 -709.44 750.209 -663.246 952.821C-615.764 1161.67 -519.121 1352.92 -384.343 1506.03C-251.542 1656.99 -73.4875 1778.6 144.036 1867.28Z" fill="url(#paint4_linear_817_2023)" fill-opacity="0.4"/>
<path d="M-555.045 960.025C-597.521 773.795 -593.14 582.503 -542.547 420.908C-449.787 121.343 -193.425 -100.746 54.9065 -315.429C80.5405 -337.587 106.978 -360.485 132.9 -383.404C160.141 -407.042 187.669 -431.443 214.127 -454.855C462.131 -674.192 695.993 -881.467 990.9 -941.452C1154.07 -974.547 1333.74 -962.911 1496.98 -908.385C1667.09 -851.776 1800.96 -752.824 1873.84 -630.309C1984.87 -444.404 1970.57 -192.437 1954.13 99.6454C1947.71 214.062 1941.11 332.595 1941.91 453.23C1942.9 562.79 1949.71 674.909 1956.66 783.425C1976.42 1098.1 1995.35 1395.22 1864.26 1597.37C1841.17 1633.03 1812.77 1666.16 1779.58 1696.77C1693.93 1775.78 1575.7 1838.26 1430.74 1879.82C1250.04 1932.05 1034.06 1951.93 806.338 1937.06C585.287 1922.98 370.978 1875.92 186.916 1800.97C-12.8685 1719.72 -176.374 1607.97 -298.828 1468.77C-422.494 1327.7 -511.259 1151.97 -555.045 960.025ZM190.027 1794.14C373.328 1868.81 586.607 1915.82 806.896 1929.61C1033.59 1944.44 1248.79 1924.79 1428.97 1872.53C1628.44 1814.88 1776.92 1718.05 1858.25 1593.01C1987.95 1393.12 1968.99 1097.03 1949.44 783.646C1942.48 675.13 1935.67 563.017 1934.44 453.186C1933.4 332.284 1939.99 213.75 1946.68 99.0868C1962.81 -191.719 1977.07 -442.657 1867.25 -626.71C1795.34 -747.641 1662.7 -845.257 1494.38 -901.534C1332.42 -955.751 1154.03 -967.077 992.154 -934.187C699.325 -874.633 465.752 -668.115 218.797 -449.255C192.339 -425.842 164.81 -401.442 137.571 -377.804C111.916 -355.131 85.2106 -331.987 59.5766 -309.829C-2.11029 -256.4 -64.5995 -202.23 -124.558 -146.927C-305.237 19.721 -466.367 200.044 -535.426 423.257C-585.443 583.326 -589.78 773.596 -547.779 958.771C-504.198 1149.43 -416.421 1324.08 -292.96 1463.85C-171.247 1602.25 -8.48169 1713.2 190.027 1794.14Z" fill="url(#paint5_linear_817_2023)" fill-opacity="0.4"/>
<path d="M-438.819 966.268C-477.365 797.718 -473.202 624.454 -427.348 478.131C-343.47 207.071 -111.136 5.65759 113.703 -188.843C136.928 -208.779 160.709 -229.722 184.469 -250.151C209.054 -271.836 233.906 -293.767 257.955 -314.958C482.445 -513.595 694.374 -701.143 961.231 -755.564C1108.82 -785.681 1271.77 -774.973 1419.25 -725.724C1573.33 -674.143 1694.71 -584.974 1760.57 -473.822C1860.97 -305.355 1848.14 -77.0363 1833.34 187.28C1827.35 290.891 1821.73 398.125 1822.47 507.419C1823.11 606.399 1829.58 707.937 1835.92 806.121C1853.8 1090.83 1870.75 1360.03 1752.29 1543.11C1731.41 1575.25 1705.71 1605.4 1675.73 1633.05C1598.1 1704.64 1491.19 1761.14 1360.05 1798.88C1196.29 1846.39 1000.75 1864.25 794.619 1850.77C594.398 1837.79 400.526 1795.17 233.957 1727.37C53.1871 1653.84 -94.7626 1552.51 -205.901 1426.65C-319.035 1299.15 -399.183 1139.75 -438.819 966.268ZM236.017 1721.01C401.825 1788.52 594.936 1830.86 794.398 1843.55C999.768 1856.74 1194.53 1839.1 1357.23 1792.07C1537.66 1740.09 1671.85 1652.48 1745.74 1539.24C1863.1 1358.18 1846.08 1090.51 1828.16 806.839C1821.81 708.655 1815.62 606.874 1814.73 507.623C1813.99 398.328 1819.88 290.847 1825.87 187.237C1840.63 -76.0513 1853.42 -303.341 1753.97 -469.708C1688.8 -579.028 1568.94 -667.623 1416.63 -718.353C1269.92 -767.316 1108.76 -777.692 962.214 -748.05C697.192 -694.331 485.798 -507.275 262.357 -309.111C238.308 -287.92 213.456 -265.989 188.872 -244.304C165.626 -223.854 141.33 -202.931 118.105 -182.996C62.2867 -134.484 5.686 -85.7454 -48.6516 -35.6273C-212.199 115.221 -357.947 278.384 -420.741 480.462C-466.019 625.261 -470.141 797.497 -431.8 964.743C-392.636 1137.18 -312.694 1295.29 -201.329 1421.94C-90.9321 1547 56.277 1647.52 236.017 1721.01Z" fill="url(#paint6_linear_817_2023)" fill-opacity="0.4"/>
<path d="M-322.591 972.506C-356.946 821.398 -353.509 666.141 -312.395 535.088C-237.132 292.283 -29.3617 112.04 171.985 -62.2783C193.089 -80.7532 214.173 -98.7136 235.277 -117.189C257.185 -136.404 279.36 -155.867 300.753 -175.103C501.73 -353.044 691.733 -520.862 930.534 -569.714C1062.79 -596.584 1208.78 -587.079 1341 -543.083C1479.07 -497.047 1587.68 -416.897 1646.79 -317.357C1736.82 -166.574 1725.21 37.8281 1711.79 274.627C1706.75 367.452 1701.07 463.345 1702.02 561.05C1702.56 649.72 1708.43 740.413 1713.89 828.509C1730.14 1083.51 1745.4 1324.56 1639.05 1488.54C1620.37 1517.16 1597.36 1544.32 1570.33 1569.26C1501 1633.21 1405.15 1683.97 1287.3 1717.86C1140.51 1760.12 965.651 1776.25 780.846 1764.41C601.43 1753.04 427.994 1714.85 278.67 1653.92C116.669 1587.86 -15.9912 1497.2 -115.279 1384.18C-215.06 1270.63 -287.126 1128.05 -322.591 972.506ZM282.275 1647.63C430.59 1708 603.511 1746.16 782.166 1757.24C965.944 1769.05 1140.01 1753.14 1286.03 1711.11C1447.68 1664.55 1567.59 1586.16 1633.53 1484.71C1738.25 1322.73 1723.2 1082.97 1707.43 829.017C1701.97 740.921 1696.1 650.234 1695.58 561.05C1694.9 463.095 1700.32 366.935 1705.36 274.109C1718.48 38.5872 1730.05 -164.786 1641.23 -313.716C1583.08 -411.671 1475.72 -490.483 1339.43 -536.189C1208.24 -580.143 1063.79 -589.585 932.832 -562.921C695.601 -514.521 506.647 -347.176 306.226 -170.243C284.319 -151.028 262.658 -131.545 240.483 -112.082C219.378 -93.6071 198.542 -75.3792 177.19 -57.1719C126.992 -13.8443 76.7742 29.9976 28.058 74.9311C-118.359 209.978 -248.992 356.228 -304.986 536.674C-345.523 666.207 -348.918 820.431 -315.015 969.976C-279.756 1124.22 -208.678 1265.73 -108.629 1379.03C-10.3707 1492.01 121.282 1582.11 282.275 1647.63Z" fill="url(#paint7_linear_817_2023)" fill-opacity="0.4"/>
<path d="M-206.364 978.75C-236.794 845.321 -233.571 708.097 -197.465 592.559C-131.063 377.744 52.6585 218.691 230.491 65.0697C249.187 48.8169 267.615 32.8111 286.31 16.5582C305.808 -0.435516 325.06 -17.6972 344.291 -34.4437C521.755 -191.688 689.584 -340.043 900.821 -382.793C1017.73 -406.417 1146.52 -398.381 1263.47 -359.124C1385.27 -318.385 1481.36 -247.502 1534 -159.819C1613.39 -26.474 1603.53 154.032 1591.47 363.312C1586.86 445.332 1582.16 529.928 1582.54 616.272C1582.98 694.627 1588.24 774.983 1593.11 852.233C1607.2 1077.51 1620.76 1290.41 1527.03 1435.31C1510.54 1460.93 1490.25 1484.59 1466.43 1506.57C1405.14 1563.1 1320.09 1607.86 1216.57 1637.95C1086.98 1675.24 932.297 1689.6 769.348 1678.9C611.012 1668.9 457.498 1635.12 325.667 1581.35C182.682 1523 65.3097 1443.01 -22.3952 1343.09C-111.602 1242.08 -175.317 1116.07 -206.364 978.75ZM328.017 1574.23C459.087 1627.71 611.591 1660.93 769.149 1671.16C931.335 1681.58 1085.24 1667.44 1214.04 1630.38C1356.41 1589.23 1462.53 1520.07 1520.78 1430.68C1613.39 1287.79 1600.03 1076.19 1585.9 851.94C1581.06 774.182 1575.8 693.821 1575.35 615.466C1574.73 528.85 1579.43 444.259 1584.3 361.992C1596.06 153.988 1605.88 -25.4891 1527.7 -156.981C1476.3 -243.325 1381.7 -313.117 1261.44 -353.28C1145.49 -391.98 1018 -400.221 902.379 -376.803C692.954 -334.238 526.178 -186.355 349.27 -30.1195C330.018 -12.8584 310.788 3.88889 291.289 20.882C272.594 37.1354 254.166 53.1413 235.471 69.3942C191.141 107.805 146.812 146.215 103.716 185.964C-25.5688 305.211 -140.821 434.301 -190.035 593.631C-225.585 708.164 -229.013 844.089 -198.789 976.219C-167.701 1112.51 -104.705 1237.2 -16.7531 1337.39C69.6756 1437.01 186.04 1516.44 328.017 1574.23Z" fill="url(#paint8_linear_817_2023)" fill-opacity="0.4"/>
<path d="M-90.3829 984.722C-116.889 868.974 -113.878 749.783 -82.7589 649.245C-25.2395 462.935 134.186 324.806 288.526 191.367C304.813 177.337 320.832 163.552 336.871 149.254C353.96 134.482 370.535 119.689 387.11 104.897C541.307 -31.382 686.695 -160.028 870.141 -197.458C971.474 -218.104 1083.28 -210.753 1184.98 -176.752C1291.01 -141.287 1374.35 -79.9389 1419.97 -3.62094C1489 112.04 1480.09 268.876 1470.18 450.411C1466.28 521.38 1462.01 595.167 1462.6 669.925C1462.94 737.971 1467.61 807.48 1471.84 874.907C1484.3 1070.49 1495.65 1255.2 1414.28 1381.28C1399.99 1403.38 1382.4 1424.06 1361.52 1443.32C1308.25 1492.45 1234.54 1531.22 1144.31 1557.47C1031.67 1590.03 897.694 1602.14 756.066 1593.07C618.558 1584.16 485.482 1554.82 370.875 1508.45C246.637 1458.07 145.089 1388.26 68.6995 1301.67C-8.14187 1213.53 -63.2607 1104.36 -90.3829 984.722ZM374.007 1501.1C487.584 1547.43 619.899 1576.49 756.646 1585.1C965.866 1598.71 1218.49 1564.84 1356.07 1437.94C1376.15 1419.43 1393.47 1399 1408.03 1376.65C1488.29 1252.59 1476.62 1069.15 1464.37 874.863C1460.14 807.436 1455.74 737.678 1455.4 669.632C1454.83 594.36 1458.83 520.822 1462.99 449.605C1473.11 269.367 1481.98 113.56 1413.92 -0.515335C1369.26 -75.248 1287.18 -135.773 1183.19 -170.639C1082.76 -204.331 972.237 -211.373 872.196 -190.933C690.827 -153.934 545.977 -25.7816 392.583 109.757C376.008 124.549 358.919 139.321 342.344 154.113C326.058 168.144 310.286 182.196 293.999 196.227C255.805 229.474 216.829 262.946 179.623 297.263C67.4685 400.709 -32.4015 512.64 -75.3499 650.836C-106.16 750.092 -109.108 867.741 -83.075 982.44C-56.1584 1100.78 -1.51244 1208.9 74.8768 1295.48C150.237 1382.02 251.044 1451.03 374.007 1501.1Z" fill="url(#paint9_linear_817_2023)" fill-opacity="0.4"/>
<path d="M25.8448 990.965C3.53068 892.654 5.81361 791.469 32.4399 706.473C81.3446 548.414 216.721 431.477 347.322 317.953C361.199 306.144 374.83 294.068 388.193 282.238C402.359 269.667 416.524 257.097 430.937 244.794C561.621 129.212 684.833 20.0282 840.466 -11.5669C926.468 -28.9667 1021.31 -22.8164 1107.77 5.93011C1197.78 35.8517 1268.34 88.1799 1307.22 152.886C1365.86 251.377 1358.44 384.05 1349.9 538.066C1346.44 598.227 1343.14 660.715 1343.43 723.865C1343.94 781.353 1347.48 840.509 1351.1 897.604C1361.41 1063.46 1371.57 1220.04 1302.31 1327.02C1289.67 1346.61 1274.53 1364.04 1257.13 1380.09C1139.09 1488.96 922.733 1518.11 744.099 1506.51C498.371 1490.92 285.807 1400.64 161.379 1259.29C95.5643 1185.25 48.8165 1092.13 25.8448 990.965ZM744.143 1499.04C921.235 1510.57 1135.25 1482.11 1251.68 1374.71C1268.54 1359.16 1283.41 1341.98 1295.79 1322.64C1363.67 1217.92 1353.97 1062.39 1343.36 897.808C1339.74 840.708 1336.2 781.552 1335.44 723.799C1335.18 660.135 1338.47 597.647 1341.94 537.486C1350.68 384.768 1357.81 252.856 1300.63 156.486C1224.86 29.2141 1023.36 -41.5458 841.991 -4.54746C688.429 26.6162 565.755 135.306 435.875 250.148C421.709 262.718 407.543 275.288 393.13 287.591C379.5 299.668 365.89 311.23 352.26 323.307C319.687 351.368 287.093 379.945 255.508 409.078C160.485 496.722 75.9969 591.492 39.5815 708.307C13.5116 792.292 11.0226 892.178 33.1316 989.197C55.8981 1089.07 101.926 1180.87 166.733 1254.35C289.659 1394.61 500.205 1483.78 744.143 1499.04Z" fill="url(#paint10_linear_817_2023)" fill-opacity="0.4"/>
<path d="M141.807 997.451C123.417 916.82 125.487 833.669 147.126 763.673C187.416 633.875 297.983 537.839 405.584 445.032C416.806 435.177 428.274 425.59 439.228 415.982C450.985 405.634 462.474 395.532 474.23 385.184C581.401 290.298 682.683 200.845 810.261 174.817C961.745 144.084 1129.94 203.449 1193.42 309.865C1241.7 390.672 1235.23 499.673 1228.33 625.924C1225.55 675.549 1222.73 726.203 1223.2 778.275C1223.62 825.453 1226.56 873.764 1229.57 920.527C1238.24 1056.68 1246.2 1185.08 1189.56 1272.99C1179.12 1289.06 1166.68 1303.5 1152.49 1316.59C1055.33 1406.21 878.108 1429.97 731.336 1420.7C529.567 1407.65 355.508 1333.87 252.99 1217.89C199.293 1156.45 160.874 1080.43 141.807 997.451ZM731.646 1412.98C876.605 1422.44 1052.02 1398.86 1147.31 1310.97C1161.23 1298.13 1173.13 1284.18 1183.56 1268.62C1239.08 1182.73 1231.08 1055.36 1222.61 920.505C1219.61 873.736 1216.41 825.16 1216.27 777.74C1215.79 725.667 1218.9 674.251 1221.41 624.874C1228.52 499.921 1234.7 391.677 1187.37 312.971C1125.35 208.675 960.424 151.247 811.802 181.321C685.788 206.897 585.556 295.878 479.189 390.022C467.432 400.371 455.943 410.473 444.187 420.821C432.965 430.676 421.744 440.53 410.543 449.871C383.838 473.015 357.133 496.159 331.169 520.11C253.544 591.708 184.171 669.566 154.535 765.259C133.205 833.978 131.197 915.588 149.114 995.17C167.709 1077.09 205.655 1152.07 258.632 1212.19C359.38 1327.33 531.67 1400.26 731.646 1412.98Z" fill="url(#paint11_linear_817_2023)" fill-opacity="0.4"/>
<path d="M262.078 820.63C293.486 719.335 380.271 644.245 463.866 571.597C472.678 563.967 481.491 556.331 490.035 548.944C499.115 541.066 508.463 532.938 517.296 524.795C600.952 450.605 680.059 380.614 779.829 360.42C883.76 339.364 1024.14 372.865 1079.64 466.333C1117.28 529.701 1112.55 614.808 1107.02 713.539C1104.95 752.114 1102.56 791.961 1102.73 832.426C1103.05 869.288 1105.4 906.748 1107.53 943.428C1114.32 1049.62 1120.55 1150.37 1076.29 1218.94C1068.06 1231.49 1058.32 1242.95 1047.34 1253.07C971.325 1323.19 832.444 1341.8 718.071 1334.35C560.515 1324.12 424.198 1266.56 344.373 1175.71C259.384 1078.73 226.24 935.919 262.078 820.63ZM719.143 1326.92C831.974 1334.31 968.778 1316.13 1042.92 1247.74C1053.63 1237.87 1063.1 1226.65 1071.05 1214.86C1114.2 1148.31 1108.16 1048.86 1101.33 943.693C1098.94 907.261 1096.6 869.288 1096.29 832.42C1095.87 791.69 1098.26 751.844 1100.6 713.025C1106.09 615.321 1110.78 531.242 1074.08 469.974C1025.8 389.167 897.489 344.041 781.868 367.46C683.904 387.469 605.602 456.72 522.749 530.165C513.668 538.049 504.567 546.442 495.487 554.32C486.675 561.956 477.863 569.586 469.05 577.221C448.481 595.199 427.13 613.41 407.054 631.924C346.561 687.721 292.323 748.148 269.199 822.978C234.556 934.196 267.947 1077.28 350.487 1171.06C428.832 1260.3 563.379 1317.02 719.143 1326.92Z" fill="url(#paint12_linear_817_2023)" fill-opacity="0.4"/>
<path d="M377.277 877.852C399.824 804.547 462.56 750.645 522.662 698.18C529.065 692.771 535.222 687.091 541.625 681.682C548.296 676.025 554.72 670.102 561.391 664.444C621.781 611.217 678.711 560.691 750.425 546.061C825.521 530.801 926.838 555.249 967.154 622.593C994.43 668.273 991.171 729.733 987.005 800.95C985.37 828.713 983.961 857.261 984.071 886.388C984.287 912.936 986.027 940.069 987.806 966.164C992.696 1042.9 997.259 1114.98 964.839 1164.7C958.805 1173.73 952.032 1181.96 943.733 1189.62C888.859 1240.22 788.846 1253.71 706.601 1248.32C592.985 1241.16 494.946 1199.32 437.278 1134.11C375.167 1064.08 351.249 960.81 377.277 877.852ZM706.645 1240.85C799.426 1246.92 914.059 1228.88 958.568 1160.58C989.353 1112.86 984.751 1041.81 980.065 966.368C978.557 940.025 976.817 912.892 976.601 886.344C976.242 856.951 977.922 828.155 979.557 800.392C983.414 730.451 986.872 670.29 960.811 626.46C926.296 568.63 834.819 536.585 752.193 553.348C682.043 567.525 625.914 617.311 566.329 669.798C559.905 675.721 553.234 681.378 546.563 687.036C540.159 692.445 534.003 698.125 527.599 703.534C512.652 716.335 497.683 729.645 483.228 742.976C439.866 782.972 401.009 826.243 384.419 879.687C359.565 959.086 383.503 1061.85 442.385 1128.91C498.55 1193.02 594.841 1233.51 706.645 1240.85Z" fill="url(#paint13_linear_817_2023)" fill-opacity="0.4"/>
</g>
</g>
<defs>
<linearGradient id="paint0_linear_817_2023" x1="-49.5" y1="-48.5" x2="1225" y2="726.5" gradientUnits="userSpaceOnUse">
<stop stop-color="#8FB9D0"/>
<stop offset="1" stop-color="#7BA5BC"/>
</linearGradient>
<linearGradient id="paint1_linear_817_2023" x1="-3.06136" y1="20.3334" x2="1189.57" y2="745.452" gradientUnits="userSpaceOnUse">
<stop stop-color="#8FB9D0"/>
<stop offset="1" stop-color="#7BA5BC"/>
</linearGradient>
<linearGradient id="paint2_linear_817_2023" x1="43.477" y1="89.4213" x2="1154.42" y2="765.106" gradientUnits="userSpaceOnUse">
<stop stop-color="#8FB9D0"/>
<stop offset="1" stop-color="#7BA5BC"/>
</linearGradient>
<linearGradient id="paint3_linear_817_2023" x1="89.9436" y1="158.198" x2="1119.11" y2="784.027" gradientUnits="userSpaceOnUse">
<stop stop-color="#8FB9D0"/>
<stop offset="1" stop-color="#7BA5BC"/>
</linearGradient>
<linearGradient id="paint4_linear_817_2023" x1="136.15" y1="227.37" x2="1083.44" y2="803.369" gradientUnits="userSpaceOnUse">
<stop stop-color="#8FB9D0"/>
<stop offset="1" stop-color="#7BA5BC"/>
</linearGradient>
<linearGradient id="paint5_linear_817_2023" x1="182.515" y1="296.21" x2="1048.15" y2="822.621" gradientUnits="userSpaceOnUse">
<stop stop-color="#8FB9D0"/>
<stop offset="1" stop-color="#7BA5BC"/>
</linearGradient>
<linearGradient id="paint6_linear_817_2023" x1="229.155" y1="365.044" x2="1013.02" y2="841.809" gradientUnits="userSpaceOnUse">
<stop stop-color="#8FB9D0"/>
<stop offset="1" stop-color="#7BA5BC"/>
</linearGradient>
<linearGradient id="paint7_linear_817_2023" x1="275.482" y1="433.822" x2="977.371" y2="860.654" gradientUnits="userSpaceOnUse">
<stop stop-color="#8FB9D0"/>
<stop offset="1" stop-color="#7BA5BC"/>
</linearGradient>
<linearGradient id="paint8_linear_817_2023" x1="322.054" y1="503.658" x2="942.124" y2="880.822" gradientUnits="userSpaceOnUse">
<stop stop-color="#8FB9D0"/>
<stop offset="1" stop-color="#7BA5BC"/>
</linearGradient>
<linearGradient id="paint9_linear_817_2023" x1="368.378" y1="572.376" x2="906.795" y2="899.781" gradientUnits="userSpaceOnUse">
<stop stop-color="#8FB9D0"/>
<stop offset="1" stop-color="#7BA5BC"/>
</linearGradient>
<linearGradient id="paint10_linear_817_2023" x1="415.036" y1="641.113" x2="871.605" y2="918.909" gradientUnits="userSpaceOnUse">
<stop stop-color="#8FB9D0"/>
<stop offset="1" stop-color="#7BA5BC"/>
</linearGradient>
<linearGradient id="paint11_linear_817_2023" x1="461.271" y1="710.357" x2="836.014" y2="938.394" gradientUnits="userSpaceOnUse">
<stop stop-color="#8FB9D0"/>
<stop offset="1" stop-color="#7BA5BC"/>
</linearGradient>
<linearGradient id="paint12_linear_817_2023" x1="507.183" y1="779.243" x2="800.042" y2="957.419" gradientUnits="userSpaceOnUse">
<stop stop-color="#8FB9D0"/>
<stop offset="1" stop-color="#7BA5BC"/>
</linearGradient>
<linearGradient id="paint13_linear_817_2023" x1="554.217" y1="848.054" x2="765.543" y2="976.828" gradientUnits="userSpaceOnUse">
<stop stop-color="#8FB9D0"/>
<stop offset="1" stop-color="#7BA5BC"/>
</linearGradient>
<clipPath id="clip0_817_2023">
<rect width="1248" height="699" fill="white"/>
</clipPath>
</defs>
</svg>
