<svg width="40" height="40" viewBox="0 0 40 40" fill="none" xmlns="http://www.w3.org/2000/svg">
<g clip-path="url(#clip0_1_1169)">
<path d="M20 40C31.0457 40 40 31.0457 40 20C40 8.9543 31.0457 0 20 0C8.9543 0 0 8.9543 0 20C0 31.0457 8.9543 40 20 40Z" fill="#51C941"/>
<path d="M27.4513 12.9454C25.7731 11.2623 23.5434 10.2297 21.1647 10.034C18.7861 9.83827 16.4153 10.4923 14.4803 11.8781C12.5453 13.2639 11.1737 15.2901 10.6131 17.5909C10.0525 19.8916 10.3399 22.3153 11.4233 24.4244L10.3618 29.5349C10.3505 29.586 10.35 29.6388 10.3605 29.69C10.371 29.7412 10.3923 29.7897 10.4229 29.8323C10.4666 29.8967 10.5292 29.9464 10.6023 29.9746C10.6753 30.0028 10.7553 30.0083 10.8315 29.9902L15.8734 28.8033C17.9944 29.8496 20.4208 30.1155 22.721 29.5539C25.0211 28.9922 27.0456 27.6394 28.4342 25.7361C29.8228 23.8329 30.4853 21.5028 30.3038 19.1606C30.1224 16.8184 29.1087 14.616 27.4433 12.9454H27.4513ZM25.875 25.4112C24.7144 26.5602 23.2198 27.3195 21.6014 27.5824C19.983 27.8453 18.3223 27.5986 16.8526 26.877L16.1468 26.5296L13.05 27.256V27.2165L13.7028 24.1191L13.3578 23.4454C12.6063 21.984 12.341 20.3241 12.5999 18.7039C12.8587 17.0837 13.6285 15.5865 14.7987 14.427C16.268 12.9714 18.26 12.1538 20.3369 12.1538C22.4137 12.1538 24.4057 12.9714 25.875 14.427L25.9095 14.4744C27.3597 15.9346 28.1693 17.904 28.1619 19.9536C28.1544 22.0031 27.3305 23.9667 25.8697 25.4165L25.875 25.4112Z" fill="white"/>
<path d="M25.6017 23.1586C25.2223 23.7507 24.6199 24.4744 23.8689 24.656C22.5421 24.9718 20.5227 24.656 17.9938 22.3375L17.9619 22.3086C15.762 20.2718 15.1782 18.5744 15.3083 17.2296C15.3852 16.4639 16.0274 15.7744 16.5688 15.3218C16.6548 15.2498 16.7567 15.1988 16.8662 15.1728C16.9757 15.1468 17.0898 15.1466 17.1994 15.1722C17.3089 15.1978 17.411 15.2484 17.4973 15.3201C17.5836 15.3917 17.6519 15.4824 17.6966 15.5849L18.5112 17.4112C18.5644 17.5288 18.5843 17.6585 18.5689 17.7864C18.5535 17.9144 18.5033 18.0357 18.4236 18.1375L18.0097 18.6639C17.9236 18.7731 17.8724 18.9053 17.8625 19.0436C17.8525 19.1819 17.8844 19.3199 17.954 19.4402C18.3472 20.0149 18.8177 20.5337 19.3524 20.9823C19.9278 21.5314 20.5803 21.995 21.2896 22.3586C21.419 22.4103 21.5611 22.4227 21.6977 22.3941C21.8342 22.3655 21.9592 22.2973 22.0565 22.1981L22.5315 21.7191C22.6219 21.6227 22.7374 21.553 22.8652 21.5177C22.9931 21.4824 23.1283 21.4829 23.2559 21.5191L25.1931 22.0691C25.3029 22.1001 25.4037 22.1563 25.4875 22.2331C25.5714 22.3099 25.6358 22.4052 25.6756 22.5113C25.7153 22.6173 25.7294 22.7312 25.7166 22.8437C25.7038 22.9561 25.6644 23.064 25.6017 23.1586Z" fill="white"/>
</g>
<defs>
<clipPath id="clip0_1_1169">
<rect width="40" height="40" fill="white"/>
</clipPath>
</defs>
</svg>
